<svg width="36" height="37" viewBox="0 0 36 37" fill="none" xmlns="http://www.w3.org/2000/svg">
<path d="M10.6875 14.7416V34.7806C10.6875 35.3631 11.1597 35.8353 11.7422 35.8353H26.5078C27.0903 35.8353 27.5625 35.3631 27.5625 34.7806V14.7416" stroke="#AED581" stroke-width="2" stroke-linecap="round" stroke-linejoin="round"/>
<path d="M27.5625 21.0697H32.8359C33.4184 21.0697 33.8906 20.5975 33.8906 20.015V12.6322C33.8906 7.9723 30.113 4.1947 25.4531 4.1947H23.3438C23.3438 6.52465 21.455 8.41345 19.125 8.41345C16.795 8.41345 14.9062 6.52465 14.9062 4.1947H12.7969C8.13697 4.1947 4.35938 7.9723 4.35938 12.6322V20.015C4.35938 20.5975 4.83157 21.0697 5.41406 21.0697H10.6875" stroke="#AED581" stroke-width="2" stroke-linecap="round" stroke-linejoin="round"/>
<path d="M19.125 8.41345V12.6322" stroke="#AED581" stroke-width="2" stroke-linecap="round" stroke-linejoin="round"/>
<path d="M23.3438 16.851H21.2344" stroke="#AED581" stroke-width="2" stroke-linecap="round" stroke-linejoin="round"/>
<path d="M8.4375 12.4916V32.5306C8.4375 33.1131 8.9097 33.5853 9.49219 33.5853H24.2578C24.8403 33.5853 25.3125 33.1131 25.3125 32.5306V12.4916" stroke="black" stroke-width="2" stroke-linecap="round" stroke-linejoin="round"/>
<path d="M25.3125 18.8197H30.5859C31.1684 18.8197 31.6406 18.3475 31.6406 17.765V10.3822C31.6406 5.7223 27.863 1.9447 23.2031 1.9447H21.0938C21.0938 4.27465 19.205 6.16345 16.875 6.16345C14.545 6.16345 12.6562 4.27465 12.6562 1.9447H10.5469C5.88697 1.9447 2.10938 5.7223 2.10938 10.3822V17.765C2.10938 18.3475 2.58157 18.8197 3.16406 18.8197H8.4375" stroke="black" stroke-width="2" stroke-linecap="round" stroke-linejoin="round"/>
<path d="M16.875 6.16345V10.3822" stroke="black" stroke-width="2" stroke-linecap="round" stroke-linejoin="round"/>
<path d="M21.0938 14.601H18.9844" stroke="black" stroke-width="2" stroke-linecap="round" stroke-linejoin="round"/>
</svg>
