<svg width="36" height="37" viewBox="0 0 36 37" fill="none" xmlns="http://www.w3.org/2000/svg">
<path d="M5.41406 31.4352V33.7274C5.43409 34.9115 6.4096 35.8555 7.59375 35.8367H30.6563C31.8404 35.8555 32.8159 34.9115 32.8359 33.7274V31.4352" stroke="#FFD54F" stroke-width="2" stroke-linecap="round" stroke-linejoin="round"/>
<path d="M5.41434 14.9356C3.99892 15.4319 3.12811 16.8556 3.33096 18.3418C3.53382 19.8279 4.75432 20.9662 6.25098 21.065C7.74764 21.1638 9.10721 20.1959 9.50372 18.7494C12.01 21.471 16.1725 21.8464 19.1253 19.617C22.0766 21.8478 26.239 21.4748 28.7468 18.755C29.146 20.1997 30.506 21.1646 32.0016 21.0641C33.4971 20.9636 34.7157 19.8254 34.918 18.3402C35.1203 16.8551 34.2504 15.4324 32.8362 14.9356" stroke="#FFD54F" stroke-width="2" stroke-linecap="round" stroke-linejoin="round"/>
<path fill-rule="evenodd" clip-rule="evenodd" d="M22.2891 4.19611H15.9609C10.1361 4.19611 5.41406 8.9181 5.41406 14.743V14.743V14.9356H32.8359V14.743V14.743C32.8359 8.9181 28.1139 4.19611 22.2891 4.19611Z" stroke="#FFD54F" stroke-width="2" stroke-linecap="round" stroke-linejoin="round"/>
<path d="M20.1797 31.618H6.46875C5.62935 31.618 4.82434 31.2844 4.23092 30.6908C3.63751 30.0971 3.30431 29.2919 3.30469 28.4525V28.4525C3.30546 26.7056 4.72184 25.2899 6.46875 25.2899H31.7812C33.5282 25.2899 34.9445 26.7056 34.9453 28.4525V28.4525C34.9457 29.2919 34.6125 30.0971 34.0191 30.6908C33.4257 31.2844 32.6207 31.618 31.7812 31.618H30.7266" stroke="#FFD54F" stroke-width="2" stroke-linecap="round" stroke-linejoin="round"/>
<path d="M34.1395 20.015C34.6593 20.5945 34.9464 21.3459 34.9453 22.1244V22.1244C34.9457 22.9638 34.6125 23.7689 34.0191 24.3626C33.4257 24.9563 32.6207 25.2899 31.7813 25.2899H6.46875C5.62935 25.2899 4.82434 24.9563 4.23093 24.3626C3.63751 23.7689 3.30432 22.9638 3.30469 22.1244V22.1244C3.30365 21.3459 3.59067 20.5945 4.11047 20.015" stroke="#FFD54F" stroke-width="2" stroke-linecap="round" stroke-linejoin="round"/>
<path d="M15.9609 25.2899L26.5078 31.618L30.7266 25.2899" stroke="#FFD54F" stroke-width="2" stroke-linecap="round" stroke-linejoin="round"/>
<path d="M12.2695 9.46814C12.5608 9.46814 12.7969 9.70424 12.7969 9.99549C12.7969 10.2867 12.5608 10.5228 12.2695 10.5228C11.9783 10.5228 11.7422 10.2867 11.7422 9.99549C11.7418 9.85551 11.7973 9.72116 11.8962 9.62218C11.9952 9.52321 12.1296 9.46777 12.2695 9.46814" stroke="#FFD54F" stroke-width="2" stroke-linecap="round" stroke-linejoin="round"/>
<path d="M18.5977 8.41486C18.8109 8.41486 19.0032 8.54334 19.0849 8.7404C19.1665 8.93745 19.1214 9.16427 18.9705 9.31509C18.8197 9.46591 18.5929 9.51103 18.3959 9.4294C18.1988 9.34778 18.0703 9.15549 18.0703 8.9422C18.0699 8.80223 18.1254 8.66788 18.2244 8.5689C18.3233 8.46992 18.4577 8.41448 18.5977 8.41486" stroke="#FFD54F" stroke-width="2" stroke-linecap="round" stroke-linejoin="round"/>
<path d="M24.9258 9.46814C25.217 9.46814 25.4531 9.70424 25.4531 9.99549C25.4531 10.2867 25.217 10.5228 24.9258 10.5228C24.6345 10.5228 24.3984 10.2867 24.3984 9.99549C24.3981 9.85551 24.4535 9.72116 24.5525 9.62218C24.6515 9.52321 24.7858 9.46777 24.9258 9.46814" stroke="#FFD54F" stroke-width="2" stroke-linecap="round" stroke-linejoin="round"/>
<path d="M3.16406 29.1852V31.4774C3.18409 32.6615 4.1596 33.6055 5.34375 33.5867H28.4063C29.5904 33.6055 30.5659 32.6615 30.5859 31.4774V29.1852" stroke="black" stroke-width="2" stroke-linecap="round" stroke-linejoin="round"/>
<path d="M3.16434 12.6856C1.74892 13.1819 0.878112 14.6056 1.08096 16.0918C1.28382 17.5779 2.50432 18.7162 4.00098 18.815C5.49764 18.9138 6.85721 17.9459 7.25372 16.4994C9.76 19.221 13.9225 19.5964 16.8753 17.367C19.8266 19.5978 23.989 19.2248 26.4968 16.505C26.896 17.9497 28.256 18.9146 29.7516 18.8141C31.2471 18.7136 32.4657 17.5754 32.668 16.0902C32.8703 14.6051 32.0004 13.1824 30.5862 12.6856" stroke="black" stroke-width="2" stroke-linecap="round" stroke-linejoin="round"/>
<path fill-rule="evenodd" clip-rule="evenodd" d="M20.0391 1.9461H13.7109C7.88606 1.9461 3.16406 6.66809 3.16406 12.493V12.493V12.6856H30.5859V12.493V12.493C30.5859 6.66809 25.8639 1.9461 20.0391 1.9461Z" stroke="black" stroke-width="2" stroke-linecap="round" stroke-linejoin="round"/>
<path d="M17.9297 29.368H4.21875C3.37935 29.368 2.57434 29.0344 1.98092 28.4408C1.38751 27.8471 1.05431 27.0419 1.05469 26.2025V26.2025C1.05546 24.4556 2.47184 23.0399 4.21875 23.0399H29.5312C31.2782 23.0399 32.6945 24.4556 32.6953 26.2025V26.2025C32.6957 27.0419 32.3625 27.8471 31.7691 28.4408C31.1757 29.0344 30.3707 29.368 29.5312 29.368H28.4766" stroke="black" stroke-width="2" stroke-linecap="round" stroke-linejoin="round"/>
<path d="M31.8895 17.765C32.4093 18.3445 32.6964 19.0959 32.6953 19.8744V19.8744C32.6957 20.7138 32.3625 21.5189 31.7691 22.1126C31.1757 22.7063 30.3707 23.0399 29.5313 23.0399H4.21875C3.37935 23.0399 2.57434 22.7063 1.98093 22.1126C1.38751 21.5189 1.05432 20.7138 1.05469 19.8744V19.8744C1.05365 19.0959 1.34067 18.3445 1.86047 17.765" stroke="black" stroke-width="2" stroke-linecap="round" stroke-linejoin="round"/>
<path d="M13.7109 23.0399L24.2578 29.368L28.4766 23.0399" stroke="black" stroke-width="2" stroke-linecap="round" stroke-linejoin="round"/>
<path d="M10.0195 7.21814C10.3108 7.21814 10.5469 7.45424 10.5469 7.74549C10.5469 8.03673 10.3108 8.27283 10.0195 8.27283C9.72829 8.27283 9.49219 8.03673 9.49219 7.74549C9.49181 7.60551 9.54725 7.47116 9.64623 7.37218C9.74521 7.27321 9.87956 7.21777 10.0195 7.21814" stroke="black" stroke-width="2" stroke-linecap="round" stroke-linejoin="round"/>
<path d="M16.3477 6.16484C16.5609 6.16484 16.7532 6.29333 16.8349 6.49038C16.9165 6.68744 16.8714 6.91426 16.7205 7.06507C16.5697 7.21589 16.3429 7.26101 16.1459 7.17939C15.9488 7.09777 15.8203 6.90548 15.8203 6.69219C15.8199 6.55221 15.8754 6.41786 15.9744 6.31888C16.0733 6.21991 16.2077 6.16447 16.3477 6.16484" stroke="black" stroke-width="2" stroke-linecap="round" stroke-linejoin="round"/>
<path d="M22.6758 7.21814C22.967 7.21814 23.2031 7.45424 23.2031 7.74549C23.2031 8.03673 22.967 8.27283 22.6758 8.27283C22.3845 8.27283 22.1484 8.03673 22.1484 7.74549C22.1481 7.60551 22.2035 7.47116 22.3025 7.37218C22.4015 7.27321 22.5358 7.21777 22.6758 7.21814" stroke="black" stroke-width="2" stroke-linecap="round" stroke-linejoin="round"/>
</svg>
