<svg width="36" height="37" viewBox="0 0 36 37" fill="none" xmlns="http://www.w3.org/2000/svg">
<path d="M34.4453 28.4525V18.9603H24.9531" stroke="#90CAF9" stroke-width="2" stroke-linecap="round" stroke-linejoin="round"/>
<path d="M34.4453 18.9603L23.2811 30.1245C22.8855 30.5204 22.3487 30.7428 21.7891 30.7428C21.2294 30.7428 20.6927 30.5204 20.297 30.1245L15.8983 25.7258C15.5027 25.3299 14.9659 25.1075 14.4062 25.1075C13.8466 25.1075 13.3098 25.3299 12.9142 25.7258L2.80469 35.8353" stroke="#90CAF9" stroke-width="2" stroke-linecap="round" stroke-linejoin="round"/>
<path fill-rule="evenodd" clip-rule="evenodd" d="M11.2424 18.9603L4.05084 11.458C2.75549 10.1634 2.43478 8.18479 3.2549 6.54734V6.54734C3.86642 5.32416 5.02871 4.46956 6.37859 4.25057C7.72847 4.03158 9.10133 4.47491 10.0682 5.44203L11.2424 6.61625L12.4166 5.44203C13.3837 4.47492 14.7568 4.03162 16.1068 4.25059C17.4569 4.46957 18.6194 5.32413 19.2313 6.54734V6.54734C20.0502 8.18522 19.729 10.1633 18.434 11.458L11.2424 18.9603Z" stroke="#90CAF9" stroke-width="2" stroke-linecap="round" stroke-linejoin="round"/>
<path d="M33.1953 26.2025V16.7103H23.7031" stroke="black" stroke-width="2" stroke-linecap="round" stroke-linejoin="round"/>
<path d="M33.1953 16.7103L22.0311 27.8745C21.6355 28.2704 21.0987 28.4928 20.5391 28.4928C19.9794 28.4928 19.4427 28.2704 19.047 27.8745L14.6483 23.4758C14.2527 23.0799 13.7159 22.8575 13.1562 22.8575C12.5966 22.8575 12.0598 23.0799 11.6642 23.4758L1.55469 33.5853" stroke="black" stroke-width="2" stroke-linecap="round" stroke-linejoin="round"/>
<path fill-rule="evenodd" clip-rule="evenodd" d="M9.9924 16.7103L2.80084 9.20797C1.50549 7.91341 1.18478 5.93479 2.0049 4.29734V4.29734C2.61642 3.07416 3.77871 2.21956 5.12859 2.00057C6.47847 1.78158 7.85133 2.22491 8.81818 3.19203L9.9924 4.36625L11.1666 3.19203C12.1337 2.22492 13.5068 1.78162 14.8568 2.00059C16.2069 2.21957 17.3694 3.07413 17.9813 4.29734V4.29734C18.8002 5.93522 18.479 7.91332 17.184 9.20797L9.9924 16.7103Z" stroke="black" stroke-width="2" stroke-linecap="round" stroke-linejoin="round"/>
</svg>
