<svg width="38" height="37" viewBox="0 0 38 37" fill="none" xmlns="http://www.w3.org/2000/svg">
<path d="M8.09277 22.2621V34.2379H16.8077V25.5282C16.8077 24.3257 17.7832 23.3508 18.9864 23.3508H21.1652C22.3685 23.3508 23.3439 24.3257 23.3439 25.5282V34.2379H32.0588V22.2621" stroke="#F8BBD0" stroke-width="2" stroke-linecap="round" stroke-linejoin="round"/>
<path d="M3.73535 20.0847L18.5362 5.29421C19.387 4.44419 20.7661 4.44419 21.6169 5.29421L36.4163 20.0847" stroke="#F8BBD0" stroke-width="2" stroke-linecap="round" stroke-linejoin="round"/>
<path d="M26.6123 10.2863V8.1089H32.0591V15.7299" stroke="#F8BBD0" stroke-width="2" stroke-linecap="round" stroke-linejoin="round"/>
<path d="M5.95215 21.1008V33.0766H14.6671V24.367C14.6671 23.1644 15.6425 22.1895 16.8458 22.1895H19.0245C20.2278 22.1895 21.2033 23.1644 21.2033 24.367V33.0766H29.9182V21.1008" stroke="black" stroke-width="2" stroke-linecap="round" stroke-linejoin="round"/>
<path d="M1.59473 18.9234L16.3956 4.13292C17.2464 3.28289 18.6255 3.28289 19.4763 4.13292L34.2757 18.9234" stroke="black" stroke-width="2" stroke-linecap="round" stroke-linejoin="round"/>
<path d="M24.4717 9.12502V6.9476H29.9185V14.5686" stroke="black" stroke-width="2" stroke-linecap="round" stroke-linejoin="round"/>
</svg>
