<svg width="38" height="37" viewBox="0 0 38 37" fill="none" xmlns="http://www.w3.org/2000/svg">
<path fill-rule="evenodd" clip-rule="evenodd" d="M19.5804 25.4949C21.9855 25.4949 23.9353 23.5451 23.9353 21.14C23.9353 18.7349 21.9855 16.7852 19.5804 16.7852C17.1753 16.7852 15.2256 18.7349 15.2256 21.14C15.2256 23.5451 17.1753 25.4949 19.5804 25.4949Z" stroke="#CFD8DC" stroke-width="2" stroke-linecap="round" stroke-linejoin="round"/>
<path fill-rule="evenodd" clip-rule="evenodd" d="M6.80601 25.4949C9.21112 25.4949 11.1608 23.5451 11.1608 21.14C11.1608 18.7349 9.21112 16.7852 6.80601 16.7852C4.4009 16.7852 2.45117 18.7349 2.45117 21.14C2.45117 23.5451 4.4009 25.4949 6.80601 25.4949Z" stroke="#CFD8DC" stroke-width="2" stroke-linecap="round" stroke-linejoin="round"/>
<path fill-rule="evenodd" clip-rule="evenodd" d="M32.3548 25.4949C34.7599 25.4949 36.7097 23.5451 36.7097 21.14C36.7097 18.7349 34.7599 16.7852 32.3548 16.7852C29.9497 16.7852 28 18.7349 28 21.14C28 23.5451 29.9497 25.4949 32.3548 25.4949Z" stroke="#CFD8DC" stroke-width="2" stroke-linecap="round" stroke-linejoin="round"/>
<path fill-rule="evenodd" clip-rule="evenodd" d="M18.4193 23.1723C20.8244 23.1723 22.7741 21.2225 22.7741 18.8174C22.7741 16.4123 20.8244 14.4626 18.4193 14.4626C16.0142 14.4626 14.0645 16.4123 14.0645 18.8174C14.0645 21.2225 16.0142 23.1723 18.4193 23.1723Z" stroke="black" stroke-width="2" stroke-linecap="round" stroke-linejoin="round"/>
<path fill-rule="evenodd" clip-rule="evenodd" d="M5.64488 23.1723C8.04999 23.1723 9.99972 21.2225 9.99972 18.8174C9.99972 16.4123 8.04999 14.4626 5.64488 14.4626C3.23977 14.4626 1.29004 16.4123 1.29004 18.8174C1.29004 21.2225 3.23977 23.1723 5.64488 23.1723Z" stroke="black" stroke-width="2" stroke-linecap="round" stroke-linejoin="round"/>
<path fill-rule="evenodd" clip-rule="evenodd" d="M31.1937 23.1723C33.5988 23.1723 35.5485 21.2225 35.5485 18.8174C35.5485 16.4123 33.5988 14.4626 31.1937 14.4626C28.7886 14.4626 26.8389 16.4123 26.8389 18.8174C26.8389 21.2225 28.7886 23.1723 31.1937 23.1723Z" stroke="black" stroke-width="2" stroke-linecap="round" stroke-linejoin="round"/>
</svg>
