<svg width="36" height="36" viewBox="0 0 36 36" fill="none" xmlns="http://www.w3.org/2000/svg">
<path d="M15.5049 12.306C15.5049 7.77557 19.1775 4.10291 23.708 4.10291C28.2385 4.10291 31.9111 7.77557 31.9111 12.306V34.8646" stroke="#B2DFDB" stroke-width="2" stroke-linecap="round" stroke-linejoin="round"/>
<path fill-rule="evenodd" clip-rule="evenodd" d="M9.35254 18.4584C9.35254 15.0605 12.107 12.306 15.5049 12.306C18.9027 12.306 21.6572 15.0605 21.6572 18.4584H9.35254Z" stroke="#B2DFDB" stroke-width="2" stroke-linecap="round" stroke-linejoin="round"/>
<path d="M10.3779 22.5599L9.35254 25.6361" stroke="#B2DFDB" stroke-width="2" stroke-linecap="round" stroke-linejoin="round"/>
<path d="M7.30176 31.7885L6.27637 34.8646" stroke="#B2DFDB" stroke-width="2" stroke-linecap="round" stroke-linejoin="round"/>
<path d="M20.6318 22.5599L21.6572 25.6361" stroke="#B2DFDB" stroke-width="2" stroke-linecap="round" stroke-linejoin="round"/>
<path d="M23.708 31.7885L24.7334 34.8646" stroke="#B2DFDB" stroke-width="2" stroke-linecap="round" stroke-linejoin="round"/>
<path d="M15.5049 22.5599V25.6361" stroke="#B2DFDB" stroke-width="2" stroke-linecap="round" stroke-linejoin="round"/>
<path d="M15.5049 34.8646V31.7885" stroke="#B2DFDB" stroke-width="2" stroke-linecap="round" stroke-linejoin="round"/>
<path d="M13.3174 10.1185C13.3174 5.58807 16.99 1.91541 21.5205 1.91541C26.051 1.91541 29.7236 5.58807 29.7236 10.1185V32.6771" stroke="#323232" stroke-width="2" stroke-linecap="round" stroke-linejoin="round"/>
<path fill-rule="evenodd" clip-rule="evenodd" d="M7.16504 16.2709C7.16504 12.873 9.91954 10.1185 13.3174 10.1185C16.7152 10.1185 19.4697 12.873 19.4697 16.2709H7.16504Z" stroke="#323232" stroke-width="2" stroke-linecap="round" stroke-linejoin="round"/>
<path d="M8.19043 20.3724L7.16504 23.4486" stroke="#323232" stroke-width="2" stroke-linecap="round" stroke-linejoin="round"/>
<path d="M5.11426 29.601L4.08887 32.6771" stroke="#323232" stroke-width="2" stroke-linecap="round" stroke-linejoin="round"/>
<path d="M18.4443 20.3724L19.4697 23.4486" stroke="#323232" stroke-width="2" stroke-linecap="round" stroke-linejoin="round"/>
<path d="M21.5205 29.601L22.5459 32.6771" stroke="#323232" stroke-width="2" stroke-linecap="round" stroke-linejoin="round"/>
<path d="M13.3174 20.3724V23.4486" stroke="#323232" stroke-width="2" stroke-linecap="round" stroke-linejoin="round"/>
<path d="M13.3174 32.6771V29.601" stroke="#323232" stroke-width="2" stroke-linecap="round" stroke-linejoin="round"/>
</svg>
