<svg width="32" height="32" viewBox="0 0 32 32" fill="none" xmlns="http://www.w3.org/2000/svg">
<path d="M31.0625 24.5V16.0625H22.625" stroke="white" stroke-width="1.5" stroke-linecap="round" stroke-linejoin="round"/>
<path d="M31.0625 16.0625L21.1387 25.9863C20.7871 26.3381 20.31 26.5359 19.8125 26.5359C19.315 26.5359 18.8379 26.3381 18.4863 25.9863L14.5762 22.0762C14.2246 21.7244 13.7475 21.5267 13.25 21.5267C12.7525 21.5267 12.2754 21.7244 11.9238 22.0762L2.9375 31.0625" stroke="white" stroke-width="1.5" stroke-linecap="round" stroke-linejoin="round"/>
<path fill-rule="evenodd" clip-rule="evenodd" d="M10.4374 16.0625L4.04494 9.39378C2.89352 8.24306 2.60845 6.48428 3.33744 5.02878V5.02878C3.88102 3.9415 4.91417 3.18185 6.11406 2.9872C7.31395 2.79254 8.53427 3.18661 9.39369 4.04628L10.4374 5.09003L11.4812 4.04628C12.3409 3.18662 13.5613 2.79258 14.7614 2.98722C15.9615 3.18187 16.9948 3.94147 17.5387 5.02878V5.02878C18.2666 6.48467 17.9811 8.24298 16.8299 9.39378L10.4374 16.0625Z" stroke="white" stroke-width="1.5" stroke-linecap="round" stroke-linejoin="round"/>
<path d="M29.0625 22.5V14.0625H20.625" stroke="black" stroke-width="1.5" stroke-linecap="round" stroke-linejoin="round"/>
<path d="M29.0625 14.0625L19.1387 23.9863C18.7871 24.3381 18.31 24.5359 17.8125 24.5359C17.315 24.5359 16.8379 24.3381 16.4863 23.9863L12.5762 20.0762C12.2246 19.7244 11.7475 19.5267 11.25 19.5267C10.7525 19.5267 10.2754 19.7244 9.92375 20.0762L0.9375 29.0625" stroke="black" stroke-width="1.5" stroke-linecap="round" stroke-linejoin="round"/>
<path fill-rule="evenodd" clip-rule="evenodd" d="M8.43744 14.0625L2.04494 7.39378C0.893524 6.24306 0.608453 4.48428 1.33744 3.02878V3.02878C1.88102 1.9415 2.91417 1.18185 4.11406 0.987197C5.31395 0.792539 6.53427 1.18661 7.39369 2.04628L8.43744 3.09003L9.48119 2.04628C10.3409 1.18662 11.5613 0.792576 12.7614 0.98722C13.9615 1.18187 14.9948 1.94147 15.5387 3.02878V3.02878C16.2666 4.48467 15.9811 6.24298 14.8299 7.39378L8.43744 14.0625Z" stroke="black" stroke-width="1.5" stroke-linecap="round" stroke-linejoin="round"/>
</svg>
