<svg width="34" height="33" viewBox="0 0 34 33" fill="none" xmlns="http://www.w3.org/2000/svg">
<path d="M8.1925 20.4036V30.7161H15.6925V23.2161C15.6925 22.1805 16.532 21.3411 17.5675 21.3411H19.4425C20.478 21.3411 21.3175 22.1805 21.3175 23.2161V30.7161H28.8175V20.4036" stroke="white" stroke-width="1.5" stroke-linecap="round" stroke-linejoin="round"/>
<path d="M4.4425 18.5286L17.18 5.79238C17.9122 5.06042 19.0991 5.06042 19.8313 5.79238L32.5675 18.5286" stroke="white" stroke-width="1.5" stroke-linecap="round" stroke-linejoin="round"/>
<path d="M24.13 10.0911V8.21606H28.8175V14.7786" stroke="white" stroke-width="1.5" stroke-linecap="round" stroke-linejoin="round"/>
<path d="M5.1925 17.4036V27.7161H12.6925V20.2161C12.6925 19.1805 13.532 18.3411 14.5675 18.3411H16.4425C17.478 18.3411 18.3175 19.1805 18.3175 20.2161V27.7161H25.8175V17.4036" stroke="black" stroke-width="1.5" stroke-linecap="round" stroke-linejoin="round"/>
<path d="M1.4425 15.5286L14.18 2.79238C14.9122 2.06042 16.0991 2.06042 16.8313 2.79238L29.5675 15.5286" stroke="black" stroke-width="1.5" stroke-linecap="round" stroke-linejoin="round"/>
<path d="M21.13 7.09106V5.21606H25.8175V11.7786" stroke="black" stroke-width="1.5" stroke-linecap="round" stroke-linejoin="round"/>
</svg>
