<svg width="34" height="32" viewBox="0 0 34 32" fill="none" xmlns="http://www.w3.org/2000/svg">
<path d="M6.3125 27.1511V29.1886C6.3303 30.2412 7.19743 31.0803 8.25 31.0636H28.75C29.8026 31.0803 30.6697 30.2412 30.6875 29.1886V27.1511" stroke="white" stroke-width="1.5" stroke-linecap="round" stroke-linejoin="round"/>
<path d="M6.31254 12.4849C5.05439 12.926 4.28034 14.1915 4.46065 15.5126C4.64097 16.8336 5.72586 17.8453 7.05622 17.9332C8.38658 18.021 9.5951 17.1607 9.94754 15.8749C12.1754 18.2941 15.8754 18.6277 18.5 16.6461C21.1235 18.629 24.8234 18.2975 27.0525 15.8799C27.4074 17.1641 28.6163 18.0218 29.9456 17.9324C31.275 17.8431 32.3582 16.8313 32.538 15.5112C32.7178 14.191 31.9446 12.9265 30.6875 12.4849" stroke="white" stroke-width="1.5" stroke-linecap="round" stroke-linejoin="round"/>
<path fill-rule="evenodd" clip-rule="evenodd" d="M21.3125 2.93872H15.6875C10.5098 2.93872 6.3125 7.13605 6.3125 12.3137V12.3137V12.485H30.6875V12.3137V12.3137C30.6875 7.13605 26.4902 2.93872 21.3125 2.93872Z" stroke="white" stroke-width="1.5" stroke-linecap="round" stroke-linejoin="round"/>
<path d="M19.4375 27.3137H7.25C6.50386 27.3137 5.7883 27.0172 5.26082 26.4895C4.73334 25.9618 4.43717 25.2461 4.4375 24.5V24.5C4.43819 22.9472 5.69719 21.6887 7.25 21.6887H29.75C31.3028 21.6887 32.5618 22.9472 32.5625 24.5V24.5C32.5628 25.2461 32.2667 25.9618 31.7392 26.4895C31.2117 27.0172 30.4961 27.3137 29.75 27.3137H28.8125" stroke="white" stroke-width="1.5" stroke-linecap="round" stroke-linejoin="round"/>
<path d="M31.8463 17C32.3083 17.5151 32.5634 18.183 32.5625 18.875V18.875C32.5628 19.6211 32.2667 20.3368 31.7392 20.8645C31.2117 21.3923 30.4961 21.6887 29.75 21.6887H7.25C6.50386 21.6887 5.7883 21.3923 5.26082 20.8645C4.73334 20.3368 4.43717 19.6211 4.4375 18.875V18.875C4.43658 18.183 4.6917 17.5151 5.15375 17" stroke="white" stroke-width="1.5" stroke-linecap="round" stroke-linejoin="round"/>
<path d="M15.6875 21.6887L25.0625 27.3137L28.8125 21.6887" stroke="white" stroke-width="1.5" stroke-linecap="round" stroke-linejoin="round"/>
<path d="M12.4063 7.625C12.6651 7.625 12.875 7.83487 12.875 8.09375C12.875 8.35264 12.6651 8.5625 12.4063 8.5625C12.1474 8.5625 11.9375 8.35264 11.9375 8.09375C11.9372 7.96933 11.9864 7.84991 12.0744 7.76193C12.1624 7.67395 12.2818 7.62467 12.4063 7.625" stroke="white" stroke-width="1.5" stroke-linecap="round" stroke-linejoin="round"/>
<path d="M18.0313 6.68872C18.2208 6.68872 18.3918 6.80293 18.4643 6.97809C18.5369 7.15325 18.4968 7.35487 18.3627 7.48893C18.2286 7.62299 18.027 7.66309 17.8519 7.59054C17.6767 7.51799 17.5625 7.34706 17.5625 7.15747C17.5622 7.03305 17.6114 6.91363 17.6994 6.82565C17.7874 6.73767 17.9068 6.68839 18.0313 6.68872" stroke="white" stroke-width="1.5" stroke-linecap="round" stroke-linejoin="round"/>
<path d="M23.6563 7.625C23.9151 7.625 24.125 7.83487 24.125 8.09375C24.125 8.35264 23.9151 8.5625 23.6563 8.5625C23.3974 8.5625 23.1875 8.35264 23.1875 8.09375C23.1872 7.96933 23.2364 7.84991 23.3244 7.76193C23.4124 7.67395 23.5318 7.62467 23.6563 7.625" stroke="white" stroke-width="1.5" stroke-linecap="round" stroke-linejoin="round"/>
<path d="M3.3125 25.1511V27.1886C3.3303 28.2412 4.19743 29.0803 5.25 29.0636H25.75C26.8026 29.0803 27.6697 28.2412 27.6875 27.1886V25.1511" stroke="black" stroke-width="1.5" stroke-linecap="round" stroke-linejoin="round"/>
<path d="M3.31254 10.4849C2.05439 10.926 1.28034 12.1915 1.46065 13.5126C1.64097 14.8336 2.72586 15.8453 4.05622 15.9332C5.38658 16.021 6.5951 15.1607 6.94754 13.8749C9.17535 16.2941 12.8754 16.6277 15.5 14.6461C18.1235 16.629 21.8234 16.2975 24.0525 13.8799C24.4074 15.1641 25.6163 16.0218 26.9456 15.9324C28.275 15.8431 29.3582 14.8313 29.538 13.5112C29.7178 12.191 28.9446 10.9265 27.6875 10.4849" stroke="black" stroke-width="1.5" stroke-linecap="round" stroke-linejoin="round"/>
<path fill-rule="evenodd" clip-rule="evenodd" d="M18.3125 0.938721H12.6875C7.50983 0.938721 3.3125 5.13605 3.3125 10.3137V10.3137V10.485H27.6875V10.3137V10.3137C27.6875 5.13605 23.4902 0.938721 18.3125 0.938721Z" stroke="black" stroke-width="1.5" stroke-linecap="round" stroke-linejoin="round"/>
<path d="M16.4375 25.3137H4.25C3.50386 25.3137 2.7883 25.0172 2.26082 24.4895C1.73334 23.9618 1.43717 23.2461 1.4375 22.5V22.5C1.43819 20.9472 2.69719 19.6887 4.25 19.6887H26.75C28.3028 19.6887 29.5618 20.9472 29.5625 22.5V22.5C29.5628 23.2461 29.2667 23.9618 28.7392 24.4895C28.2117 25.0172 27.4961 25.3137 26.75 25.3137H25.8125" stroke="black" stroke-width="1.5" stroke-linecap="round" stroke-linejoin="round"/>
<path d="M28.8463 15C29.3083 15.5151 29.5634 16.183 29.5625 16.875V16.875C29.5628 17.6211 29.2667 18.3368 28.7392 18.8645C28.2117 19.3923 27.4961 19.6887 26.75 19.6887H4.25C3.50386 19.6887 2.7883 19.3923 2.26082 18.8645C1.73334 18.3368 1.43717 17.6211 1.4375 16.875V16.875C1.43658 16.183 1.6917 15.5151 2.15375 15" stroke="black" stroke-width="1.5" stroke-linecap="round" stroke-linejoin="round"/>
<path d="M12.6875 19.6887L22.0625 25.3137L25.8125 19.6887" stroke="black" stroke-width="1.5" stroke-linecap="round" stroke-linejoin="round"/>
<path d="M9.40625 5.625C9.66514 5.625 9.875 5.83487 9.875 6.09375C9.875 6.35264 9.66514 6.5625 9.40625 6.5625C9.14737 6.5625 8.9375 6.35264 8.9375 6.09375C8.93717 5.96933 8.98645 5.84991 9.07443 5.76193C9.16241 5.67395 9.28183 5.62467 9.40625 5.625" stroke="black" stroke-width="1.5" stroke-linecap="round" stroke-linejoin="round"/>
<path d="M15.0313 4.68872C15.2208 4.68872 15.3918 4.80293 15.4643 4.97809C15.5369 5.15325 15.4968 5.35487 15.3627 5.48893C15.2286 5.62299 15.027 5.66309 14.8519 5.59054C14.6767 5.51799 14.5625 5.34706 14.5625 5.15747C14.5622 5.03305 14.6114 4.91363 14.6994 4.82565C14.7874 4.73767 14.9068 4.68839 15.0313 4.68872" stroke="black" stroke-width="1.5" stroke-linecap="round" stroke-linejoin="round"/>
<path d="M20.6563 5.625C20.9151 5.625 21.125 5.83487 21.125 6.09375C21.125 6.35264 20.9151 6.5625 20.6563 6.5625C20.3974 6.5625 20.1875 6.35264 20.1875 6.09375C20.1872 5.96933 20.2364 5.84991 20.3244 5.76193C20.4124 5.67395 20.5318 5.62467 20.6563 5.625" stroke="black" stroke-width="1.5" stroke-linecap="round" stroke-linejoin="round"/>
</svg>
