<svg width="34" height="32" viewBox="0 0 34 32" fill="none" xmlns="http://www.w3.org/2000/svg">
<path d="M15.2188 10.4375C15.2188 6.29536 18.5766 2.9375 22.7188 2.9375C26.8609 2.9375 30.2188 6.29536 30.2188 10.4375V31.0625" stroke="white" stroke-width="1.5" stroke-linecap="round" stroke-linejoin="round"/>
<path fill-rule="evenodd" clip-rule="evenodd" d="M9.59375 16.0625C9.59375 12.9559 12.1121 10.4375 15.2188 10.4375C18.3254 10.4375 20.8437 12.9559 20.8438 16.0625H9.59375Z" stroke="white" stroke-width="1.5" stroke-linecap="round" stroke-linejoin="round"/>
<path d="M10.5312 19.8125L9.59375 22.625" stroke="white" stroke-width="1.5" stroke-linecap="round" stroke-linejoin="round"/>
<path d="M7.71875 28.25L6.78125 31.0625" stroke="white" stroke-width="1.5" stroke-linecap="round" stroke-linejoin="round"/>
<path d="M19.9062 19.8125L20.8438 22.625" stroke="white" stroke-width="1.5" stroke-linecap="round" stroke-linejoin="round"/>
<path d="M22.7188 28.25L23.6562 31.0625" stroke="white" stroke-width="1.5" stroke-linecap="round" stroke-linejoin="round"/>
<path d="M15.2188 19.8125V22.625" stroke="white" stroke-width="1.5" stroke-linecap="round" stroke-linejoin="round"/>
<path d="M15.2188 31.0625V28.25" stroke="white" stroke-width="1.5" stroke-linecap="round" stroke-linejoin="round"/>
<path d="M12.2188 8.4375C12.2188 4.29536 15.5766 0.9375 19.7188 0.9375C23.8609 0.9375 27.2188 4.29536 27.2188 8.4375V29.0625" stroke="#323232" stroke-width="1.5" stroke-linecap="round" stroke-linejoin="round"/>
<path fill-rule="evenodd" clip-rule="evenodd" d="M6.59375 14.0625C6.59375 10.9559 9.11215 8.4375 12.2188 8.4375C15.3254 8.4375 17.8437 10.9559 17.8438 14.0625H6.59375Z" stroke="#323232" stroke-width="1.5" stroke-linecap="round" stroke-linejoin="round"/>
<path d="M7.53125 17.8125L6.59375 20.625" stroke="#323232" stroke-width="1.5" stroke-linecap="round" stroke-linejoin="round"/>
<path d="M4.71875 26.25L3.78125 29.0625" stroke="#323232" stroke-width="1.5" stroke-linecap="round" stroke-linejoin="round"/>
<path d="M16.9062 17.8125L17.8438 20.625" stroke="#323232" stroke-width="1.5" stroke-linecap="round" stroke-linejoin="round"/>
<path d="M19.7188 26.25L20.6562 29.0625" stroke="#323232" stroke-width="1.5" stroke-linecap="round" stroke-linejoin="round"/>
<path d="M12.2188 17.8125V20.625" stroke="#323232" stroke-width="1.5" stroke-linecap="round" stroke-linejoin="round"/>
<path d="M12.2188 29.0625V26.25" stroke="#323232" stroke-width="1.5" stroke-linecap="round" stroke-linejoin="round"/>
</svg>
