<svg width="24" height="25" viewBox="0 0 24 25" fill="none" xmlns="http://www.w3.org/2000/svg">
<g clip-path="url(#clip0_140_5722)">
<path d="M7.85981 11.062C7.76516 10.9681 7.71191 10.8403 7.71191 10.707C7.71191 10.5737 7.76516 10.4459 7.85981 10.352L8.05981 10.152C8.15389 10.0543 8.28423 10 8.41981 10.002H15.5798C15.7154 10 15.8457 10.0543 15.9398 10.152L16.1398 10.352C16.2345 10.4459 16.2877 10.5737 16.2877 10.707C16.2877 10.8403 16.2345 10.9681 16.1398 11.062L12.3498 14.852C12.2591 14.9487 12.1324 15.0035 11.9998 15.0035C11.8672 15.0035 11.7405 14.9487 11.6498 14.852L7.85981 11.062Z" fill="#323232"/>
</g>
<defs>
<clipPath id="clip0_140_5722">
<rect width="24" height="24" fill="white" transform="translate(0 0.00195312)"/>
</clipPath>
</defs>
</svg>
