<svg width="36" height="37" viewBox="0 0 36 37" fill="none" xmlns="http://www.w3.org/2000/svg">
<path fill-rule="evenodd" clip-rule="evenodd" d="M28.0713 35.0305L18.9734 28.4143C18.1989 27.8513 17.1498 27.8513 16.3753 28.4143L7.27738 35.0305C6.9417 35.2745 6.49756 35.3098 6.12755 35.1218C5.75754 34.9339 5.5241 34.5544 5.52319 34.1394V4.31379C5.52319 3.09363 6.51233 2.10449 7.7325 2.10449H27.6162C28.8364 2.10449 29.8255 3.09363 29.8255 4.31379V34.1394C29.8246 34.5544 29.5912 34.9339 29.2212 35.1218C28.8512 35.3098 28.407 35.2745 28.0713 35.0305V35.0305Z" stroke="#3FCD76" stroke-width="3" stroke-linecap="round" stroke-linejoin="round"/>
<path d="M24.3023 12.5044L16.2457 20.5595C16.0388 20.7667 15.7579 20.8832 15.4651 20.8832C15.1722 20.8832 14.8914 20.7667 14.6845 20.5595L12.1511 18.0277" stroke="#3FCD76" stroke-width="3" stroke-linecap="round" stroke-linejoin="round"/>
</svg>
