<svg width="36" height="37" viewBox="0 0 36 37" fill="none" xmlns="http://www.w3.org/2000/svg">
<path d="M9.94189 17.2793L13.5504 22.4064C13.8286 22.8207 14.2895 23.0753 14.7882 23.0902C15.287 23.1051 15.7622 22.8784 16.0646 22.4815L27.6163 7.86035" stroke="#3FCD76" stroke-width="3" stroke-linecap="round" stroke-linejoin="round"/>
<path fill-rule="evenodd" clip-rule="evenodd" d="M4.41853 2.10303C3.19837 2.10303 2.20923 3.09217 2.20923 4.31233V17.5681C2.20923 24.6571 12.864 32.5457 16.4857 34.8891C17.2081 35.3603 18.1406 35.3603 18.863 34.8891C22.4847 32.5457 33.1395 24.6571 33.1395 17.5681V4.31233C33.1395 3.72639 32.9067 3.16444 32.4924 2.75012C32.078 2.33579 31.5161 2.10303 30.9302 2.10303L4.41853 2.10303Z" stroke="#3FCD76" stroke-width="3" stroke-linecap="round" stroke-linejoin="round"/>
</svg>
