<svg width="16" height="16" viewBox="0 0 16 16" fill="none" xmlns="http://www.w3.org/2000/svg">
<mask id="path-1-inside-1_84_16852" fill="white">
<path fill-rule="evenodd" clip-rule="evenodd" d="M4 6V13.6C4 13.8209 4.22386 14 4.5 14H11.5C11.7761 14 12 13.8209 12 13.6V6"/>
</mask>
<path fill-rule="evenodd" clip-rule="evenodd" d="M4 6V13.6C4 13.8209 4.22386 14 4.5 14H11.5C11.7761 14 12 13.8209 12 13.6V6" fill="#323232"/>
<path d="M5.5 6C5.5 5.17157 4.82843 4.5 4 4.5C3.17157 4.5 2.5 5.17157 2.5 6H5.5ZM13.5 6C13.5 5.17157 12.8284 4.5 12 4.5C11.1716 4.5 10.5 5.17157 10.5 6H13.5ZM2.5 6V13.6H5.5V6H2.5ZM2.5 13.6C2.5 14.9444 3.72508 15.5 4.5 15.5V12.5C4.67865 12.5 4.88993 12.5567 5.08349 12.7115C5.2798 12.8686 5.5 13.1732 5.5 13.6H2.5ZM4.5 15.5H11.5V12.5H4.5V15.5ZM11.5 15.5C12.2749 15.5 13.5 14.9444 13.5 13.6H10.5C10.5 13.1732 10.7202 12.8686 10.9165 12.7115C11.1101 12.5567 11.3213 12.5 11.5 12.5V15.5ZM13.5 13.6V6H10.5V13.6H13.5Z" fill="#323232" mask="url(#path-1-inside-1_84_16852)"/>
<mask id="path-3-inside-2_84_16852" fill="white">
<path fill-rule="evenodd" clip-rule="evenodd" d="M11.4531 8.43223H13.6016C13.8389 8.43223 14.0313 8.25314 14.0313 8.03223V5.23223C14.0313 3.46492 12.4922 2.03223 10.5938 2.03223H9.73438C9.73438 2.91588 8.96486 3.63223 8.01563 3.63223C7.06639 3.63223 6.29688 2.91588 6.29688 2.03223H5.4375C3.53902 2.03223 2 3.46492 2 5.23223V8.03223C2 8.25314 2.19238 8.43223 2.42969 8.43223H4.57813"/>
</mask>
<path fill-rule="evenodd" clip-rule="evenodd" d="M11.4531 8.43223H13.6016C13.8389 8.43223 14.0313 8.25314 14.0313 8.03223V5.23223C14.0313 3.46492 12.4922 2.03223 10.5938 2.03223H9.73438C9.73438 2.91588 8.96486 3.63223 8.01563 3.63223C7.06639 3.63223 6.29688 2.91588 6.29688 2.03223H5.4375C3.53902 2.03223 2 3.46492 2 5.23223V8.03223C2 8.25314 2.19238 8.43223 2.42969 8.43223H4.57813" fill="#323232"/>
<path d="M11.4531 6.93223C10.6247 6.93223 9.95313 7.6038 9.95313 8.43223C9.95313 9.26065 10.6247 9.93223 11.4531 9.93223V6.93223ZM9.73438 2.03223V0.532227C8.90595 0.532227 8.23438 1.2038 8.23438 2.03223L9.73438 2.03223ZM6.29688 2.03223H7.79688C7.79688 1.2038 7.1253 0.532227 6.29688 0.532227V2.03223ZM4.57812 9.93223C5.40655 9.93223 6.07812 9.26065 6.07812 8.43223C6.07812 7.6038 5.40655 6.93223 4.57812 6.93223V9.93223ZM11.4531 9.93223H13.6016V6.93223H11.4531V9.93223ZM13.6016 9.93223C14.5644 9.93223 15.5312 9.1809 15.5312 8.03223H12.5312C12.5312 7.32538 13.1134 6.93223 13.6016 6.93223V9.93223ZM15.5312 8.03223V5.23223H12.5312V8.03223H15.5312ZM15.5312 5.23223C15.5312 2.53716 13.2177 0.532227 10.5938 0.532227V3.53223C11.7668 3.53223 12.5312 4.39267 12.5312 5.23223H15.5312ZM10.5938 0.532227H9.73438V3.53223H10.5938V0.532227ZM8.23438 2.03223C8.23438 2.03271 8.23477 2.03209 8.23366 2.03453C8.2319 2.0384 8.22549 2.05025 8.20891 2.06569C8.17503 2.09723 8.11037 2.13223 8.01562 2.13223V5.13223C9.69034 5.13223 11.2344 3.84364 11.2344 2.03223H8.23438ZM8.01562 2.13223C7.92088 2.13223 7.85622 2.09723 7.82234 2.06569C7.80576 2.05025 7.79935 2.0384 7.79759 2.03453C7.79648 2.03209 7.79688 2.03271 7.79688 2.03223H4.79688C4.79688 3.84364 6.34091 5.13223 8.01562 5.13223V2.13223ZM6.29688 0.532227H5.4375V3.53223H6.29688V0.532227ZM5.4375 0.532227C2.81354 0.532227 0.5 2.53716 0.5 5.23223H3.5C3.5 4.39267 4.2645 3.53223 5.4375 3.53223L5.4375 0.532227ZM0.5 5.23223V8.03223H3.5V5.23223H0.5ZM0.5 8.03223C0.5 9.1809 1.4669 9.93223 2.42969 9.93223V6.93223C2.91785 6.93223 3.5 7.32538 3.5 8.03223H0.5ZM2.42969 9.93223H4.57812V6.93223H2.42969V9.93223Z" fill="#323232" mask="url(#path-3-inside-2_84_16852)"/>
</svg>
