<svg width="34" height="32" viewBox="0 0 34 32" fill="none" xmlns="http://www.w3.org/2000/svg">
<path fill-rule="evenodd" clip-rule="evenodd" d="M18 22.1875C20.0711 22.1875 21.75 20.5086 21.75 18.4375C21.75 16.3664 20.0711 14.6875 18 14.6875C15.9289 14.6875 14.25 16.3664 14.25 18.4375C14.25 20.5086 15.9289 22.1875 18 22.1875Z" stroke="#FFDC00" stroke-width="1.5" stroke-linecap="round" stroke-linejoin="round"/>
<path fill-rule="evenodd" clip-rule="evenodd" d="M7 22.1875C9.07107 22.1875 10.75 20.5086 10.75 18.4375C10.75 16.3664 9.07107 14.6875 7 14.6875C4.92893 14.6875 3.25 16.3664 3.25 18.4375C3.25 20.5086 4.92893 22.1875 7 22.1875Z" stroke="#FFDC00" stroke-width="1.5" stroke-linecap="round" stroke-linejoin="round"/>
<path fill-rule="evenodd" clip-rule="evenodd" d="M29 22.1875C31.0711 22.1875 32.75 20.5086 32.75 18.4375C32.75 16.3664 31.0711 14.6875 29 14.6875C26.9289 14.6875 25.25 16.3664 25.25 18.4375C25.25 20.5086 26.9289 22.1875 29 22.1875Z" stroke="#FFDC00" stroke-width="1.5" stroke-linecap="round" stroke-linejoin="round"/>
<path fill-rule="evenodd" clip-rule="evenodd" d="M16 19.1875C18.0711 19.1875 19.75 17.5086 19.75 15.4375C19.75 13.3664 18.0711 11.6875 16 11.6875C13.9289 11.6875 12.25 13.3664 12.25 15.4375C12.25 17.5086 13.9289 19.1875 16 19.1875Z" stroke="black" stroke-width="1.5" stroke-linecap="round" stroke-linejoin="round"/>
<path fill-rule="evenodd" clip-rule="evenodd" d="M5 19.1875C7.07107 19.1875 8.75 17.5086 8.75 15.4375C8.75 13.3664 7.07107 11.6875 5 11.6875C2.92893 11.6875 1.25 13.3664 1.25 15.4375C1.25 17.5086 2.92893 19.1875 5 19.1875Z" stroke="black" stroke-width="1.5" stroke-linecap="round" stroke-linejoin="round"/>
<path fill-rule="evenodd" clip-rule="evenodd" d="M27 19.1875C29.0711 19.1875 30.75 17.5086 30.75 15.4375C30.75 13.3664 29.0711 11.6875 27 11.6875C24.9289 11.6875 23.25 13.3664 23.25 15.4375C23.25 17.5086 24.9289 19.1875 27 19.1875Z" stroke="black" stroke-width="1.5" stroke-linecap="round" stroke-linejoin="round"/>
</svg>
