<svg width="18" height="18" viewBox="0 0 18 18" fill="none" xmlns="http://www.w3.org/2000/svg">
<path d="M3.5 12H14.5" stroke="#323232" stroke-width="1.5" stroke-linecap="round"/>
<path d="M15 12C15 12.8284 14.3284 13.5 13.5 13.5C12.6716 13.5 12 12.8284 12 12C12 11.1716 12.6716 10.5 13.5 10.5C14.3284 10.5 15 11.1716 15 12Z" fill="#323232" stroke="#323232" stroke-linecap="round" stroke-linejoin="round"/>
<path d="M3.5 7L14.5 7" stroke="#323232" stroke-width="1.5" stroke-linecap="round"/>
<path d="M6 7C6 7.82843 5.32843 8.5 4.5 8.5C3.67157 8.5 3 7.82843 3 7C3 6.17157 3.67157 5.5 4.5 5.5C5.32843 5.5 6 6.17157 6 7Z" fill="#323232" stroke="#323232" stroke-linecap="round" stroke-linejoin="round"/>
</svg>
