<svg width="15" height="16" viewBox="0 0 15 16" fill="none" xmlns="http://www.w3.org/2000/svg">
<path d="M3.55945 13.3453C3.55945 13.8975 4.00716 14.3453 4.55945 14.3453C5.11173 14.3453 5.55945 13.8975 5.55945 13.3453H3.55945ZM5.55945 13.3453V6.34525H3.55945V13.3453H5.55945Z" fill="#323232"/>
<path d="M4.55945 8.33335V2.5" stroke="#323232" stroke-width="1.5" stroke-linecap="round" stroke-linejoin="round"/>
<path d="M2.75 4.7619C2.75 5.28968 3.1119 6.34524 4.55952 6.34524C6.00714 6.34524 6.36905 5.28968 6.36905 4.7619" stroke="#323232" stroke-width="1.5" stroke-linejoin="round"/>
<path d="M6.36902 4.83334V2.5" stroke="#323232" stroke-width="1.5" stroke-linecap="round" stroke-linejoin="round"/>
<path d="M2.75 4.83334V2.5" stroke="#323232" stroke-width="1.5" stroke-linecap="round" stroke-linejoin="round"/>
<path d="M9.53564 4.37912C9.53564 3.37692 11.3452 2.70879 12.2499 2.5V10.0165H10.4404C9.7166 10.0165 9.53564 9.5989 9.53564 9.39011V4.37912Z" fill="#323232"/>
<path d="M12.2499 10.6429V10.0165M12.2499 10.0165V2.5C11.3452 2.70879 9.53564 3.37692 9.53564 4.37912C9.53564 5.38132 9.53564 8.13736 9.53564 9.39011C9.53564 9.5989 9.7166 10.0165 10.4404 10.0165C11.1642 10.0165 11.9483 10.0165 12.2499 10.0165Z" stroke="#323232" stroke-width="1.5" stroke-linejoin="round"/>
<path d="M11.0237 13.3571C11.0237 13.9094 11.4714 14.3571 12.0237 14.3571C12.576 14.3571 13.0237 13.9094 13.0237 13.3571L11.0237 13.3571ZM13.0237 13.3571L13.0237 7.0238L11.0237 7.0238L11.0237 13.3571L13.0237 13.3571Z" fill="#323232"/>
</svg>
