<svg width="36" height="37" viewBox="0 0 36 37" fill="none" xmlns="http://www.w3.org/2000/svg">
<path d="M17.6743 26.4067V35.2439" stroke="#3FCD76" stroke-width="3" stroke-linecap="round" stroke-linejoin="round"/>
<path d="M27.6162 2.10449H33.1395V7.62775" stroke="#3FCD76" stroke-width="3" stroke-linecap="round" stroke-linejoin="round"/>
<path d="M7.73248 2.10449H2.20923V7.62775" stroke="#3FCD76" stroke-width="3" stroke-linecap="round" stroke-linejoin="round"/>
<path d="M13.2559 30.8252H22.0931" stroke="#3FCD76" stroke-width="3" stroke-linecap="round" stroke-linejoin="round"/>
<path fill-rule="evenodd" clip-rule="evenodd" d="M17.6744 26.4068C22.555 26.4068 26.5116 22.4503 26.5116 17.5696C26.5116 12.689 22.555 8.73242 17.6744 8.73242C12.7937 8.73242 8.83716 12.689 8.83716 17.5696C8.83716 22.4503 12.7937 26.4068 17.6744 26.4068Z" stroke="#3FCD76" stroke-width="3" stroke-linecap="round" stroke-linejoin="round"/>
<path d="M9.9418 5.41846L5.52319 9.83706" stroke="#3FCD76" stroke-width="3" stroke-linecap="round" stroke-linejoin="round"/>
<path d="M2.20923 2.10449L11.425 11.3202" stroke="#3FCD76" stroke-width="3" stroke-linecap="round" stroke-linejoin="round"/>
<path d="M33.1393 2.10449L23.9221 11.3202" stroke="#3FCD76" stroke-width="3" stroke-linecap="round" stroke-linejoin="round"/>
<path d="M24.7442 13.3721L17.3504 20.5435C17.1435 20.7507 16.8627 20.8671 16.5698 20.8671C16.277 20.8671 15.9961 20.7507 15.7892 20.5435L13.2559 18.0116" stroke="#3FCD76" stroke-width="3" stroke-linecap="round" stroke-linejoin="round"/>
</svg>
