<svg width="32" height="32" viewBox="0 0 32 32" fill="none" xmlns="http://www.w3.org/2000/svg">
<path d="M31.0625 24.5V16.0625H22.625" stroke="#FFDC00" stroke-width="1.5" stroke-linecap="round" stroke-linejoin="round"/>
<path d="M31.0624 16.0625L21.1386 25.9863C20.787 26.3381 20.3099 26.5359 19.8124 26.5359C19.3149 26.5359 18.8378 26.3381 18.4861 25.9863L14.5761 22.0762C14.2245 21.7244 13.7474 21.5267 13.2499 21.5267C12.7524 21.5267 12.2753 21.7244 11.9236 22.0762L2.93738 31.0625" stroke="#FFDC00" stroke-width="1.5" stroke-linecap="round" stroke-linejoin="round"/>
<path fill-rule="evenodd" clip-rule="evenodd" d="M10.4374 16.0624L4.04494 9.39366C2.89352 8.24294 2.60845 6.48416 3.33744 5.02865V5.02865C3.88102 3.94138 4.91417 3.18173 6.11406 2.98708C7.31395 2.79242 8.53427 3.18649 9.39369 4.04615L10.4374 5.0899L11.4812 4.04615C12.3409 3.1865 13.5613 2.79245 14.7614 2.9871C15.9615 3.18174 16.9948 3.94135 17.5387 5.02865V5.02865C18.2666 6.48454 17.9811 8.24286 16.8299 9.39366L10.4374 16.0624Z" stroke="#FFDC00" stroke-width="1.5" stroke-linecap="round" stroke-linejoin="round"/>
<path d="M29.0625 22.5V14.0625H20.625" stroke="black" stroke-width="1.5" stroke-linecap="round" stroke-linejoin="round"/>
<path d="M29.0624 14.0625L19.1386 23.9863C18.787 24.3381 18.3099 24.5359 17.8124 24.5359C17.3149 24.5359 16.8378 24.3381 16.4861 23.9863L12.5761 20.0762C12.2245 19.7244 11.7474 19.5267 11.2499 19.5267C10.7524 19.5267 10.2753 19.7244 9.92363 20.0762L0.937378 29.0625" stroke="black" stroke-width="1.5" stroke-linecap="round" stroke-linejoin="round"/>
<path fill-rule="evenodd" clip-rule="evenodd" d="M8.43744 14.0624L2.04494 7.39366C0.893524 6.24294 0.608453 4.48416 1.33744 3.02865V3.02865C1.88102 1.94138 2.91417 1.18173 4.11406 0.987075C5.31395 0.792417 6.53427 1.18649 7.39369 2.04615L8.43744 3.0899L9.48119 2.04615C10.3409 1.1865 11.5613 0.792454 12.7614 0.987098C13.9615 1.18174 14.9948 1.94135 15.5387 3.02865V3.02865C16.2666 4.48454 15.9811 6.24286 14.8299 7.39366L8.43744 14.0624Z" stroke="black" stroke-width="1.5" stroke-linecap="round" stroke-linejoin="round"/>
</svg>
