<svg width="16" height="16" viewBox="0 0 16 16" fill="none" xmlns="http://www.w3.org/2000/svg">
<mask id="path-1-inside-1_88_56217" fill="white">
<path fill-rule="evenodd" clip-rule="evenodd" d="M9.99951 9.99969L9.99951 2.39969C9.99951 2.17878 9.88758 1.99969 9.74951 1.99969L6.24951 1.99969C6.11144 1.99969 5.99951 2.17878 5.99951 2.39969L5.99951 9.99969"/>
</mask>
<path fill-rule="evenodd" clip-rule="evenodd" d="M9.99951 9.99969L9.99951 2.39969C9.99951 2.17878 9.88758 1.99969 9.74951 1.99969L6.24951 1.99969C6.11144 1.99969 5.99951 2.17878 5.99951 2.39969L5.99951 9.99969" fill="#323232"/>
<path d="M8.49951 9.99969C8.49951 10.8281 9.17108 11.4997 9.99951 11.4997C10.8279 11.4997 11.4995 10.8281 11.4995 9.99969L8.49951 9.99969ZM4.49951 9.99969C4.49951 10.8281 5.17108 11.4997 5.99951 11.4997C6.82794 11.4997 7.49951 10.8281 7.49951 9.99969L4.49951 9.99969ZM11.4995 9.99969L11.4995 2.39969L8.49951 2.39969L8.49951 9.99969L11.4995 9.99969ZM11.4995 2.39969C11.4995 2.05308 11.4147 1.6681 11.1983 1.32185C10.9951 0.996751 10.5224 0.499695 9.74951 0.499695L9.74951 3.49969C9.11474 3.49969 8.767 3.09218 8.65429 2.91185C8.52837 2.71038 8.49951 2.52539 8.49951 2.39969L11.4995 2.39969ZM9.74951 0.499695L6.24951 0.499694L6.24951 3.49969L9.74951 3.49969L9.74951 0.499695ZM6.24951 0.499694C5.47667 0.499694 5.00393 0.99675 4.80074 1.32185C4.58434 1.6681 4.49951 2.05308 4.49951 2.39969L7.49951 2.39969C7.49951 2.52539 7.47065 2.71038 7.34473 2.91185C7.23203 3.09218 6.88428 3.49969 6.24951 3.49969L6.24951 0.499694ZM4.49951 2.39969L4.49951 9.99969L7.49951 9.99969L7.49951 2.39969L4.49951 2.39969Z" fill="#323232" mask="url(#path-1-inside-1_88_56217)"/>
<mask id="path-3-inside-2_88_56217" fill="white">
<path fill-rule="evenodd" clip-rule="evenodd" d="M6 6V13.6C6 13.8209 6.11193 14 6.25 14H9.75C9.88807 14 10 13.8209 10 13.6V6"/>
</mask>
<path fill-rule="evenodd" clip-rule="evenodd" d="M6 6V13.6C6 13.8209 6.11193 14 6.25 14H9.75C9.88807 14 10 13.8209 10 13.6V6" fill="#323232"/>
<path d="M7.5 6C7.5 5.17157 6.82843 4.5 6 4.5C5.17157 4.5 4.5 5.17157 4.5 6H7.5ZM11.5 6C11.5 5.17157 10.8284 4.5 10 4.5C9.17157 4.5 8.5 5.17157 8.5 6H11.5ZM4.5 6V13.6H7.5V6H4.5ZM4.5 13.6C4.5 13.9466 4.58482 14.3316 4.80123 14.6778C5.00442 15.0029 5.47716 15.5 6.25 15.5V12.5C6.88477 12.5 7.23251 12.9075 7.34522 13.0878C7.47114 13.2893 7.5 13.4743 7.5 13.6H4.5ZM6.25 15.5H9.75V12.5H6.25V15.5ZM9.75 15.5C10.5228 15.5 10.9956 15.0029 11.1988 14.6778C11.4152 14.3316 11.5 13.9466 11.5 13.6H8.5C8.5 13.4743 8.52886 13.2893 8.65478 13.0878C8.76749 12.9075 9.11523 12.5 9.75 12.5V15.5ZM11.5 13.6V6H8.5V13.6H11.5Z" fill="#323232" mask="url(#path-3-inside-2_88_56217)"/>
<mask id="path-5-inside-3_88_56217" fill="white">
<path fill-rule="evenodd" clip-rule="evenodd" d="M5.99976 9.99969L13.5998 9.9997C13.8207 9.9997 13.9998 9.88777 13.9998 9.7497L13.9998 6.2497C13.9998 6.11162 13.8207 5.9997 13.5998 5.9997L5.99976 5.99969"/>
</mask>
<path fill-rule="evenodd" clip-rule="evenodd" d="M5.99976 9.99969L13.5998 9.9997C13.8207 9.9997 13.9998 9.88777 13.9998 9.7497L13.9998 6.2497C13.9998 6.11162 13.8207 5.9997 13.5998 5.9997L5.99976 5.99969" fill="#323232"/>
<path d="M5.99976 8.49969C5.17133 8.49969 4.49976 9.17127 4.49976 9.99969C4.49976 10.8281 5.17133 11.4997 5.99976 11.4997L5.99976 8.49969ZM5.99976 4.49969C5.17133 4.49969 4.49976 5.17127 4.49976 5.99969C4.49976 6.82812 5.17133 7.49969 5.99976 7.49969L5.99976 4.49969ZM5.99976 11.4997L13.5998 11.4997L13.5998 8.4997L5.99976 8.49969L5.99976 11.4997ZM13.5998 11.4997C13.9464 11.4997 14.3314 11.4149 14.6776 11.1985C15.0027 10.9953 15.4998 10.5225 15.4998 9.7497L12.4998 9.7497C12.4998 9.11492 12.9073 8.76718 13.0876 8.65447C13.2891 8.52855 13.4741 8.4997 13.5998 8.4997L13.5998 11.4997ZM15.4998 9.7497L15.4998 6.2497L12.4998 6.2497L12.4998 9.7497L15.4998 9.7497ZM15.4998 6.2497C15.4998 5.47685 15.0027 5.00411 14.6776 4.80092C14.3314 4.58452 13.9464 4.4997 13.5998 4.4997L13.5998 7.4997C13.4741 7.4997 13.2891 7.47084 13.0876 7.34492C12.9073 7.23221 12.4998 6.88447 12.4998 6.2497L15.4998 6.2497ZM13.5998 4.4997L5.99976 4.49969L5.99976 7.49969L13.5998 7.4997L13.5998 4.4997Z" fill="#323232" mask="url(#path-5-inside-3_88_56217)"/>
<mask id="path-7-inside-4_88_56217" fill="white">
<path fill-rule="evenodd" clip-rule="evenodd" d="M9.99976 5.99969L2.39976 5.99969C2.17884 5.99969 1.99976 6.11162 1.99976 6.24969L1.99976 9.74969C1.99976 9.88777 2.17884 9.99969 2.39976 9.99969L9.99976 9.99969"/>
</mask>
<path fill-rule="evenodd" clip-rule="evenodd" d="M9.99976 5.99969L2.39976 5.99969C2.17884 5.99969 1.99976 6.11162 1.99976 6.24969L1.99976 9.74969C1.99976 9.88777 2.17884 9.99969 2.39976 9.99969L9.99976 9.99969" fill="#323232"/>
<path d="M9.99976 7.49969C10.8282 7.49969 11.4998 6.82812 11.4998 5.99969C11.4998 5.17127 10.8282 4.49969 9.99976 4.49969L9.99976 7.49969ZM9.99976 11.4997C10.8282 11.4997 11.4998 10.8281 11.4998 9.99969C11.4998 9.17127 10.8282 8.49969 9.99976 8.49969L9.99976 11.4997ZM9.99976 4.49969L2.39976 4.49969L2.39976 7.49969L9.99976 7.49969L9.99976 4.49969ZM2.39976 4.49969C2.05314 4.49969 1.66816 4.58452 1.32191 4.80092C0.996812 5.00411 0.499756 5.47685 0.499756 6.24969L3.49976 6.24969C3.49976 6.88447 3.09224 7.23221 2.91191 7.34492C2.71044 7.47084 2.52545 7.49969 2.39976 7.49969L2.39976 4.49969ZM0.499756 6.24969L0.499756 9.74969L3.49976 9.74969L3.49976 6.24969L0.499756 6.24969ZM0.499756 9.74969C0.499756 10.5225 0.996812 10.9953 1.32191 11.1985C1.66816 11.4149 2.05314 11.4997 2.39976 11.4997L2.39976 8.49969C2.52545 8.49969 2.71044 8.52855 2.91191 8.65447C3.09224 8.76718 3.49976 9.11492 3.49976 9.74969L0.499756 9.74969ZM2.39976 11.4997L9.99976 11.4997L9.99976 8.49969L2.39976 8.49969L2.39976 11.4997Z" fill="#323232" mask="url(#path-7-inside-4_88_56217)"/>
</svg>
