<svg width="33" height="32" viewBox="0 0 33 32" fill="none" xmlns="http://www.w3.org/2000/svg">
<path d="M7.69238 19.4038V29.7163H15.1924V22.2163C15.1924 21.1808 16.0318 20.3413 17.0674 20.3413H18.9424C19.9779 20.3413 20.8174 21.1808 20.8174 22.2163V29.7163H28.3174V19.4038" stroke="#FFDC00" stroke-width="1.5" stroke-linecap="round" stroke-linejoin="round"/>
<path d="M3.94238 17.5289L16.6799 4.79263C17.4121 4.06066 18.5989 4.06066 19.3311 4.79263L32.0674 17.5289" stroke="#FFDC00" stroke-width="1.5" stroke-linecap="round" stroke-linejoin="round"/>
<path d="M23.6299 9.09131V7.21631H28.3174V13.7788" stroke="#FFDC00" stroke-width="1.5" stroke-linecap="round" stroke-linejoin="round"/>
<path d="M4.69238 17.4038V27.7163H12.1924V20.2163C12.1924 19.1808 13.0318 18.3413 14.0674 18.3413H15.9424C16.9779 18.3413 17.8174 19.1808 17.8174 20.2163V27.7163H25.3174V17.4038" stroke="black" stroke-width="1.5" stroke-linecap="round" stroke-linejoin="round"/>
<path d="M0.942383 15.5289L13.6799 2.79263C14.4121 2.06066 15.5989 2.06066 16.3311 2.79263L29.0674 15.5289" stroke="black" stroke-width="1.5" stroke-linecap="round" stroke-linejoin="round"/>
<path d="M20.6299 7.09131V5.21631H25.3174V11.7788" stroke="black" stroke-width="1.5" stroke-linecap="round" stroke-linejoin="round"/>
</svg>
