<svg width="13" height="8" viewBox="0 0 13 8" fill="none" xmlns="http://www.w3.org/2000/svg">
<path d="M1.36011 0.8125V7.1875" stroke="#323232" stroke-linecap="round" stroke-linejoin="round"/>
<path d="M12.1602 2.6875V7.1875" stroke="#323232" stroke-linecap="round" stroke-linejoin="round"/>
<path d="M12.1601 5.3125H1.36011" stroke="#323232" stroke-linecap="round" stroke-linejoin="round"/>
<path fill-rule="evenodd" clip-rule="evenodd" d="M3.88005 3.8125C4.47652 3.8125 4.96005 3.30882 4.96005 2.6875C4.96005 2.06618 4.47652 1.5625 3.88005 1.5625C3.28358 1.5625 2.80005 2.06618 2.80005 2.6875C2.80005 3.30882 3.28358 3.8125 3.88005 3.8125Z" stroke="#323232" stroke-linecap="round" stroke-linejoin="round"/>
<path fill-rule="evenodd" clip-rule="evenodd" d="M6.40015 3.81268V2.04318C6.40008 1.92766 6.45114 1.81856 6.53854 1.74744C6.62594 1.67633 6.73992 1.65115 6.84751 1.67918L9.67231 2.41468C10.2887 2.5754 10.7209 3.15276 10.7201 3.81468L6.40015 3.81268Z" stroke="#323232" stroke-linecap="round" stroke-linejoin="round"/>
</svg>
