<svg width="20" height="20" viewBox="0 0 20 20" fill="none" xmlns="http://www.w3.org/2000/svg">
<path fill-rule="evenodd" clip-rule="evenodd" d="M14.2576 3.36715C13.0621 2.17164 11.4406 1.5 9.74987 1.5C8.05915 1.5 6.43768 2.17164 5.24216 3.36715C4.04664 4.56267 3.375 6.18415 3.375 7.87487C3.375 10.7708 7.62491 16.3747 9.21863 18.2149C9.27678 18.3026 9.35572 18.3745 9.44841 18.4242C9.54111 18.474 9.64467 18.5 9.74987 18.5C9.85507 18.5 9.95863 18.474 10.0513 18.4242C10.144 18.3745 10.223 18.3026 10.2811 18.2149C11.8748 16.3747 16.1247 10.7708 16.1247 7.87487C16.1247 6.18415 15.4531 4.56267 14.2576 3.36715ZM7.49608 10.1288C6.89832 9.53103 6.5625 8.72029 6.5625 7.87493C6.5625 7.02957 6.89832 6.21884 7.49608 5.62108C8.09384 5.02332 8.90457 4.6875 9.74993 4.6875C10.5953 4.6875 11.406 5.02332 12.0038 5.62108C12.6015 6.21884 12.9374 7.02957 12.9374 7.87493C12.9374 8.72029 12.6015 9.53103 12.0038 10.1288C11.406 10.7265 10.5953 11.0624 9.74993 11.0624C8.90457 11.0624 8.09384 10.7265 7.49608 10.1288Z" fill="#323232"/>
</svg>
