<svg width="20" height="21" viewBox="0 0 20 21" fill="none" xmlns="http://www.w3.org/2000/svg">
<path d="M12.1618 17.8805L12.1703 17.8855C12.9256 18.3664 13.8223 18.5753 14.7124 18.4777C15.6024 18.38 16.4326 17.9818 17.0657 17.3486L17.6161 16.7982C17.8619 16.5521 18 16.2184 18 15.8706C18 15.5227 17.8619 15.189 17.6161 14.9429L15.2971 12.6253C15.051 12.3795 14.7173 12.2414 14.3695 12.2414C14.0216 12.2414 13.6879 12.3795 13.4418 12.6253V12.6253C13.3201 12.7472 13.1755 12.8439 13.0164 12.9099C12.8573 12.9758 12.6867 13.0098 12.5145 13.0098C12.3422 13.0098 12.1717 12.9758 12.0126 12.9099C11.8535 12.8439 11.7089 12.7472 11.5872 12.6253L7.87653 8.91398C7.6307 8.66784 7.49262 8.33419 7.49262 7.98632C7.49262 7.63844 7.6307 7.30479 7.87653 7.05866V7.05866C7.9984 6.93693 8.09508 6.79238 8.16105 6.63327C8.22701 6.47415 8.26097 6.3036 8.26097 6.13135C8.26097 5.9591 8.22701 5.78855 8.16105 5.62943C8.09508 5.47032 7.9984 5.32576 7.87653 5.20404L5.55826 2.88293C5.31213 2.6371 4.97848 2.49902 4.6306 2.49902C4.28273 2.49902 3.94908 2.6371 3.70294 2.88293L3.15253 3.43334C2.51951 4.06651 2.12127 4.89658 2.02353 5.78657C1.92579 6.67655 2.1344 7.57326 2.61492 8.32872L2.62061 8.33726C5.16175 12.099 8.40061 15.3386 12.1618 17.8805V17.8805Z" fill="#323232"/>
</svg>
