<svg width="14" height="16" viewBox="0 0 14 16" fill="none" xmlns="http://www.w3.org/2000/svg">
<path d="M10.2308 6.0777C10.2308 5.9553 10.1822 5.8379 10.0956 5.75135C10.0091 5.66479 9.89167 5.61617 9.76926 5.61617H8.38465V4.23156C8.38465 4.10915 8.33603 3.99176 8.24947 3.9052C8.16292 3.81865 8.04552 3.77002 7.92312 3.77002H6.07697C5.95456 3.77002 5.83717 3.81865 5.75061 3.9052C5.66406 3.99176 5.61543 4.10915 5.61543 4.23156V5.61617H4.23082C4.10842 5.61617 3.99102 5.66479 3.90447 5.75135C3.81791 5.8379 3.76929 5.9553 3.76929 6.0777V7.92385C3.76929 8.04626 3.81791 8.16365 3.90447 8.2502C3.99102 8.33676 4.10842 8.38539 4.23082 8.38539H5.61543V9.77C5.61543 9.8924 5.66406 10.0098 5.75061 10.0964C5.83717 10.1829 5.95456 10.2315 6.07697 10.2315H7.92312C8.04552 10.2315 8.16292 10.1829 8.24947 10.0964C8.33603 10.0098 8.38465 9.8924 8.38465 9.77V8.38539H9.76926C9.89167 8.38539 10.0091 8.33676 10.0956 8.2502C10.1822 8.16365 10.2308 8.04626 10.2308 7.92385V6.0777Z" stroke="black" stroke-linecap="round" stroke-linejoin="round"/>
<path d="M1.00002 2.95318V7.6387C1.00004 9.11971 1.44883 10.5659 2.28725 11.7868C3.12568 13.0076 4.31436 13.9457 5.69662 14.4774L6.33723 14.7236C6.76384 14.8877 7.23616 14.8877 7.66277 14.7236L8.30338 14.4774C9.68564 13.9457 10.8743 13.0076 11.7127 11.7868C12.5512 10.5659 13 9.11971 13 7.6387V2.95318C13.0012 2.77685 12.9515 2.60391 12.8567 2.4552C12.7619 2.3065 12.6262 2.18836 12.4658 2.11503C10.7427 1.36291 8.88008 0.983135 7 1.00057C5.11992 0.983135 3.25734 1.36291 1.53417 2.11503C1.37381 2.18836 1.23806 2.3065 1.14329 2.4552C1.04852 2.60391 0.998767 2.77685 1.00002 2.95318V2.95318Z" stroke="black" stroke-linecap="round" stroke-linejoin="round"/>
</svg>
