<svg width="24" height="24" viewBox="0 0 24 24" fill="none" xmlns="http://www.w3.org/2000/svg">
<path fill-rule="evenodd" clip-rule="evenodd" d="M23.1801 6.71006L21.0801 5.81006L22.1801 3.41006L19.6201 4.26006C18.8047 3.49999 17.7347 3.072 16.6201 3.06006C14.1371 3.06556 12.1256 5.07706 12.1201 7.56006V8.56006C8.58008 9.29006 5.49008 7.36006 2.62008 4.06006C2.12008 6.72673 2.62008 8.72673 4.12008 10.0601L0.830078 9.56006C1.0924 11.746 2.88223 13.4306 5.08008 13.5601L2.33008 14.5601C3.33008 16.5601 5.15008 16.8701 7.58008 17.0601C5.5939 18.4147 3.23365 19.1141 0.830078 19.0601C13.5901 24.7301 21.0801 16.4001 21.0801 9.06006V8.23006L23.1801 6.71006Z" stroke="white" stroke-width="1.5" stroke-linecap="round" stroke-linejoin="round"/>
</svg>
