<svg width="24" height="24" viewBox="0 0 24 24" fill="none" xmlns="http://www.w3.org/2000/svg">
<path fill-rule="evenodd" clip-rule="evenodd" d="M12.15 23.25H1.75C1.19772 23.25 0.75 22.8023 0.75 22.25V1.75C0.75 1.19772 1.19772 0.75 1.75 0.75H22.25C22.8023 0.75 23.25 1.19772 23.25 1.75V22.25C23.25 22.8023 22.8023 23.25 22.25 23.25H16.15V14.75H18.71C18.9643 14.7518 19.1795 14.5625 19.21 14.31L19.59 11.31C19.6072 11.1673 19.5623 11.0242 19.4666 10.917C19.3709 10.8098 19.2337 10.749 19.09 10.75H16.15V9.69C16.15 9.24178 16.3281 8.81193 16.645 8.49499C16.9619 8.17805 17.3918 8 17.84 8H19.65C19.9261 8 20.15 7.77614 20.15 7.5V4.5C20.15 4.22386 19.9261 4 19.65 4H17.84C14.6975 4 12.15 6.5475 12.15 9.69V10.75H9.65C9.37386 10.75 9.15 10.9739 9.15 11.25V14.25C9.15 14.5261 9.37386 14.75 9.65 14.75H12.15V23.25Z" stroke="white" stroke-width="1.5" stroke-linecap="round" stroke-linejoin="round"/>
</svg>
