<svg width="25" height="24" viewBox="0 0 25 24" fill="none" xmlns="http://www.w3.org/2000/svg">
<rect x="1.74023" y="0.75" width="22.5" height="22.5" rx="6" stroke="white" stroke-width="1.5" stroke-linecap="round" stroke-linejoin="round"/>
<path fill-rule="evenodd" clip-rule="evenodd" d="M12.9902 17C15.7517 17 17.9902 14.7614 17.9902 12C17.9902 9.23858 15.7517 7 12.9902 7C10.2288 7 7.99023 9.23858 7.99023 12C7.99023 14.7614 10.2288 17 12.9902 17Z" stroke="white" stroke-width="1.5" stroke-linecap="round" stroke-linejoin="round"/>
<path d="M20.3403 5.1499C20.3403 5.42604 20.1165 5.6499 19.8403 5.6499C19.5642 5.6499 19.3403 5.42604 19.3403 5.1499" stroke="white" stroke-width="1.5" stroke-linecap="round" stroke-linejoin="round"/>
<path d="M19.3403 5.1499C19.3403 4.87376 19.5642 4.6499 19.8403 4.6499C20.1165 4.6499 20.3403 4.87376 20.3403 5.1499" stroke="white" stroke-width="1.5" stroke-linecap="round" stroke-linejoin="round"/>
</svg>
