<svg xmlns="http://www.w3.org/2000/svg" width="81" height="80" viewBox="0 0 81 80" fill="none">
  <path d="M80.4165 60.4031L78.9744 53.0898C78.395 50.151 76.9674 47.4794 74.8463 45.3641L72.314 42.8391V34.2331C73.8966 33.6076 75.0197 32.0636 75.0197 30.2612C75.0197 29.7747 74.9368 29.3073 74.7861 28.8713C76.5793 28.365 77.8976 26.7153 77.8976 24.7624C77.8976 24.2467 77.8056 23.752 77.6372 23.2938C79.3015 22.7104 80.4987 21.1246 80.4987 19.2638C80.4987 17.4027 79.3015 15.8171 77.6372 15.2337C77.8056 14.7756 77.8976 14.2809 77.8976 13.7651C77.8976 11.4106 75.982 9.49529 73.6277 9.49529H65.0703C65.8559 8.54637 66.2337 7.27325 66.0056 5.97997C65.8019 4.82446 65.1567 3.82294 64.1889 3.15971C63.2211 2.49647 62.0539 2.25625 60.9033 2.48329L53.5898 3.9254C50.6508 4.50497 47.9793 5.93253 45.8641 8.05364L43.3391 10.5859H34.7331C34.1076 9.00333 32.5636 7.88025 30.7613 7.88025C30.2748 7.88025 29.8074 7.96316 29.3714 8.11381C28.8651 6.32068 27.2154 5.00239 25.2626 5.00239C24.7469 5.00239 24.2522 5.09439 23.794 5.26278C23.2106 3.59848 21.6248 2.40129 19.7639 2.40129C17.9029 2.40129 16.3173 3.59863 15.7339 5.26293C15.2757 5.09454 14.781 5.00255 14.2652 5.00255C11.9109 5.00255 9.99541 6.91799 9.99541 9.27235V17.8297C9.04663 17.0443 7.7738 16.6666 6.48006 16.8945C5.32454 17.0982 4.32302 17.7434 3.65978 18.7113C2.99654 19.679 2.75631 20.8461 2.9832 21.997L4.42562 29.3103C5.0052 32.2493 6.43277 34.9207 8.55374 37.0359L11.0859 39.5609V48.1668C9.50313 48.7923 8.3799 50.3364 8.3799 52.1386C8.3799 52.6253 8.46281 53.0925 8.61346 53.5287C6.82032 54.0349 5.50202 55.6845 5.50202 57.6374C5.50202 58.1533 5.59402 58.648 5.76241 59.1062C4.09794 59.6895 2.9009 61.2753 2.9009 63.1362C2.9009 64.9972 4.0981 66.5829 5.76241 67.1661C5.59402 67.6243 5.50202 68.1191 5.50202 68.6349C5.50202 70.9892 7.41763 72.9047 9.77185 72.9047H18.3292C17.5438 73.8536 17.166 75.1266 17.3941 76.4199C17.5978 77.5754 18.243 78.5769 19.2107 79.24C19.9407 79.7403 20.784 79.9999 21.6483 79.9999C21.9298 79.9999 22.2137 79.9722 22.4966 79.9165L29.8101 78.4743C32.7488 77.8949 35.4204 76.4673 37.5358 74.3462L40.0608 71.8139H48.6668C49.2923 73.3967 50.8363 74.5199 52.6387 74.5199C53.1252 74.5199 53.5926 74.437 54.0287 74.2863C54.535 76.0794 56.1848 77.3976 58.1374 77.3976C58.6532 77.3976 59.148 77.3056 59.6062 77.1372C60.1894 78.8017 61.7752 79.9987 63.6361 79.9987C65.4971 79.9987 67.0829 78.8015 67.6662 77.1372C68.1243 77.3056 68.6192 77.3976 69.135 77.3976C71.4893 77.3976 73.4046 75.482 73.4046 73.1278V64.5707C74.3536 65.356 75.6261 65.734 76.92 65.5057C78.0755 65.302 79.077 64.6568 79.7401 63.6891C80.4032 62.7214 80.6436 61.5542 80.4165 60.4031ZM35.0316 22.3796V18.2483V13.617H43.9684C44.3711 13.617 44.7573 13.4567 45.0416 13.1716L48.0107 10.1941C49.699 8.50135 51.8307 7.36191 54.1763 6.89949L61.4898 5.45738C61.8354 5.38948 62.1853 5.46132 62.4757 5.66032C62.7661 5.85933 62.9597 6.15987 63.0208 6.50649C63.1393 7.17837 62.7131 7.83175 62.0508 7.99423L59.0115 8.73946C58.0528 8.97438 57.4428 9.85616 57.5612 10.836C57.6795 11.8159 58.4817 12.5271 59.4689 12.5271H73.6282C74.3113 12.5271 74.8669 13.0829 74.8669 13.7659C74.8669 14.3988 74.3896 14.9214 73.7761 14.9947L65.3877 15.0044C64.5508 15.0044 63.8721 15.683 63.8721 16.52C63.8721 17.3571 64.5508 18.0357 65.3877 18.0357L76.2295 18.026C76.9126 18.026 77.4682 18.5817 77.4682 19.2647C77.4682 19.9476 76.9126 20.5034 76.2295 20.5034H65.3877C64.5508 20.5034 63.8721 21.1819 63.8721 22.019C63.8721 22.8561 64.5508 23.5346 65.3877 23.5346H73.7767C74.3899 23.6083 74.8669 24.1309 74.8669 24.7635C74.8669 25.4464 74.3113 26.0022 73.6282 26.0022H65.3877C64.5508 26.0022 63.8721 26.6807 63.8721 27.5178C63.8721 28.3549 64.5508 29.0334 65.3877 29.0334H70.8984C71.5116 29.1069 71.989 29.6295 71.989 30.2625C71.989 30.9454 71.4334 31.501 70.7505 31.501H55.4444C52.238 31.501 49.225 30.2506 46.961 27.9801L45.0419 26.0555C44.7576 25.7705 44.3714 25.6101 43.9687 25.6101H35.0316V22.3796ZM10.694 34.889C9.001 33.2009 7.86171 31.0691 7.39944 28.7235L5.95717 21.4102C5.88896 21.0648 5.96111 20.7147 6.16011 20.4243C6.35911 20.1339 6.65966 19.9403 7.00629 19.8793C7.67892 19.761 8.3314 20.1869 8.49388 20.8494L9.23896 23.8884C9.47373 24.8471 10.3561 25.4561 11.3354 25.3388C12.3154 25.2206 13.0267 24.4182 13.0267 23.4313V9.27204C13.0267 8.58911 13.5823 8.03333 14.2654 8.03333C14.8982 8.03333 15.4206 8.51045 15.4943 9.12367L15.504 17.5125C15.504 18.3495 16.1827 19.0281 17.0196 19.0281C17.8565 19.0281 18.5352 18.3495 18.5352 17.5125V9.27204C18.5352 9.17974 18.5313 9.0885 18.5255 8.99757V6.67079C18.5255 5.98785 19.0812 5.43222 19.7642 5.43222C20.4473 5.43222 21.003 5.98785 21.003 6.67079V8.99772C20.9972 9.0885 20.9933 9.17989 20.9933 9.2722L21.003 17.5126C21.003 18.3497 21.6817 19.0282 22.5186 19.0282C23.3555 19.0282 24.0342 18.3497 24.0342 17.5126V9.12367C24.1079 8.51045 24.6305 8.03333 25.2631 8.03333C25.9462 8.03333 26.5018 8.58911 26.5018 9.27204C26.5018 9.27204 26.4958 16.6452 26.5018 16.7004V17.5126C26.5018 18.3497 27.1805 19.0282 28.0175 19.0282C28.8544 19.0282 29.5331 18.3497 29.5331 17.5126V12.0015C29.6067 11.3883 30.1293 10.9112 30.762 10.9112C31.445 10.9112 32.0007 11.467 32.0007 12.1499V27.4557C32.0007 30.6156 30.7172 33.7078 28.4799 35.939L26.5553 37.8581C26.2701 38.1425 26.1099 38.5286 26.1099 38.9313V47.8682H23.0788V43.8441C23.0788 43.0071 22.4001 42.3284 21.5631 42.3284C20.7262 42.3284 20.0475 43.0071 20.0475 43.8441V47.8682H14.117V38.9313C14.117 38.5286 13.9567 38.1425 13.6716 37.8581L10.694 34.889ZM48.3687 68.7824H39.4315V68.7825C39.0288 68.7825 38.6426 68.9429 38.3583 69.2278L35.3892 72.2052C33.7009 73.8983 31.569 75.0376 29.2236 75.4997L21.9101 76.942C21.5645 77.0103 21.2146 76.9382 20.9242 76.739C20.6338 76.5399 20.4402 76.2395 20.3791 75.8929C20.2606 75.2212 20.6868 74.5678 21.3491 74.4054L24.3887 73.6602C25.3472 73.4251 25.9571 72.5435 25.8386 71.5637C25.7204 70.5838 24.918 69.8727 23.931 69.8727H9.77201C9.08891 69.8727 8.53328 69.3171 8.53328 68.634C8.53328 68.0009 9.01086 67.4782 9.62453 67.405L18.0126 67.3954C18.8496 67.3954 19.5283 66.7167 19.5283 65.8798C19.5283 65.0429 18.8496 64.3642 18.0126 64.3642L7.17088 64.3737C6.48779 64.3737 5.93216 63.8181 5.93216 63.135C5.93216 62.4521 6.48779 61.8964 7.17088 61.8964H18.0126C18.8496 61.8964 19.5283 61.2177 19.5283 60.3808C19.5283 59.5439 18.8496 58.8652 18.0126 58.8652H9.62453C9.01086 58.792 8.53328 58.2693 8.53328 57.6362C8.53328 56.9533 9.08891 56.3976 9.77201 56.3976H18.0126C18.8496 56.3976 19.5283 55.7189 19.5283 54.882C19.5283 54.0451 18.8496 53.3664 18.0126 53.3664H12.5024C11.8889 53.2932 11.4113 52.7704 11.4113 52.1374C11.4113 51.4543 11.9669 50.8987 12.6499 50.8987H27.9558C31.1621 50.8987 34.175 52.1492 36.4392 54.4196L38.3583 56.3441C38.6426 56.6294 39.0288 56.7896 39.4315 56.7896H48.3687V68.7824ZM48.4149 53.7594H40.0605L38.5856 52.2803C36.0292 49.7166 32.7114 48.1915 29.1405 47.9147V39.5603L30.6196 38.0855C33.143 35.5692 34.6971 32.1794 34.983 28.6403H43.3396L44.8144 30.1194C47.3708 32.683 50.6888 34.2081 54.2597 34.485V42.8395L52.7806 44.3144C50.2169 46.8704 48.6917 50.1886 48.4149 53.7594ZM77.2396 61.9753C77.0406 62.2656 76.7401 62.4592 76.3933 62.5204C75.7208 62.6395 75.0682 62.2128 74.906 61.5503L74.1608 58.5108C73.9257 57.5521 73.0424 56.9432 72.0641 57.0609C71.0842 57.1792 70.3731 57.9814 70.3731 58.9684V73.1276C70.3731 73.8107 69.8174 74.3663 69.1345 74.3663C68.5014 74.3663 67.9787 73.8888 67.9055 73.2751L67.8959 64.8872C67.8959 64.0503 67.2172 63.3716 66.3803 63.3716C65.5434 63.3716 64.8647 64.0503 64.8647 64.8872L64.8742 75.729C64.8742 76.412 64.3186 76.9676 63.6355 76.9676C62.9525 76.9676 62.3969 76.412 62.3969 75.729V64.8872C62.3969 64.0503 61.7182 63.3716 60.8813 63.3716C60.0444 63.3716 59.3657 64.0503 59.3657 64.8872V73.2751C59.2925 73.8888 58.7697 74.3663 58.1366 74.3663C57.4535 74.3663 56.8979 73.8107 56.8979 73.1276V64.8872C56.8979 64.0503 56.2192 63.3716 55.3823 63.3716C54.5454 63.3716 53.8667 64.0503 53.8667 64.8872V70.3983C53.793 71.0115 53.2704 71.4886 52.6378 71.4886C51.9547 71.4886 51.3991 70.933 51.3991 70.2499V64.152V60.0207V54.9441C51.3991 51.7379 52.6496 48.725 54.92 46.4606L56.8446 44.5415C57.1298 44.2572 57.29 43.871 57.29 43.4683V34.5313H60.5198H63.1358V39.1287C63.1358 39.9657 63.8145 40.6443 64.6514 40.6443C65.4883 40.6443 66.167 39.9657 66.167 39.1287V34.5313H69.2823V43.4683C69.2823 43.871 69.4426 44.2572 69.7276 44.5415L72.705 47.5106C74.3981 49.1989 75.5374 51.3308 75.9995 53.6763L77.4418 60.9896C77.5108 61.3349 77.4388 61.685 77.2396 61.9753Z" fill="#FFDC00"/>
  <path d="M78.0166 58.0032L76.5745 50.6899C75.9951 47.7511 74.5675 45.0795 72.4464 42.9642L69.9141 40.4392V31.8332C71.4967 31.2077 72.6198 29.6637 72.6198 27.8613C72.6198 27.3748 72.5369 26.9074 72.3862 26.4714C74.1794 25.9651 75.4977 24.3154 75.4977 22.3625C75.4977 21.8468 75.4057 21.3521 75.2373 20.8939C76.9016 20.3105 78.0988 18.7247 78.0988 16.8639C78.0988 15.0028 76.9016 13.4172 75.2373 12.8338C75.4057 12.3757 75.4977 11.881 75.4977 11.3652C75.4977 9.01068 73.5821 7.09539 71.2278 7.09539H62.6704C63.456 6.14646 63.8338 4.87334 63.6057 3.58007C63.402 2.42456 62.7568 1.42304 61.7889 0.759804C60.8212 0.096569 59.654 -0.143657 58.5034 0.0833831L51.1898 1.52549C48.2509 2.10507 45.5794 3.53263 43.4642 5.65374L40.9392 8.18603H32.3332C31.7077 6.60342 30.1637 5.48035 28.3614 5.48035C27.8749 5.48035 27.4075 5.56325 26.9715 5.71391C26.4652 3.92078 24.8155 2.60249 22.8627 2.60249C22.347 2.60249 21.8523 2.69449 21.3941 2.86288C20.8107 1.19858 19.2249 0.00138813 17.364 0.00138813C15.503 0.00138813 13.9173 1.19873 13.334 2.86303C12.8758 2.69464 12.3811 2.60264 11.8653 2.60264C9.51096 2.60264 7.59551 4.51808 7.59551 6.87245V15.4298C6.64672 14.6444 5.3739 14.2667 4.08016 14.4946C2.92464 14.6983 1.92311 15.3435 1.25987 16.3114C0.596635 17.2791 0.356407 18.4462 0.583297 19.5971L2.02572 26.9104C2.6053 29.8494 4.03287 32.5208 6.15384 34.636L8.686 37.161V45.7669C7.10323 46.3923 5.98 47.9365 5.98 49.7387C5.98 50.2253 6.0629 50.6926 6.21356 51.1288C4.42042 51.635 3.10212 53.2846 3.10212 55.2375C3.10212 55.7534 3.19412 56.2481 3.36251 56.7063C1.69804 57.2896 0.500998 58.8754 0.500998 60.7363C0.500998 62.5973 1.69819 64.183 3.36251 64.7662C3.19412 65.2244 3.10212 65.7192 3.10212 66.235C3.10212 68.5893 5.01772 70.5048 7.37195 70.5048H15.9293C15.1439 71.4537 14.7661 72.7267 14.9942 74.02C15.1979 75.1755 15.8431 76.177 16.8108 76.8401C17.5408 77.3404 18.3841 77.6 19.2484 77.6C19.5299 77.6 19.8138 77.5723 20.0967 77.5166L27.4102 76.0744C30.3489 75.495 33.0205 74.0674 35.1359 71.9463L37.6609 69.414H46.2669C46.8924 70.9967 48.4364 72.12 50.2388 72.12C50.7253 72.12 51.1927 72.0371 51.6288 71.8864C52.1351 73.6795 53.7849 74.9977 55.7375 74.9977C56.2533 74.9977 56.7481 74.9057 57.2063 74.7373C57.7895 76.4017 59.3753 77.5988 61.2362 77.5988C63.0972 77.5988 64.683 76.4016 65.2663 74.7373C65.7244 74.9057 66.2193 74.9977 66.7351 74.9977C69.0894 74.9977 71.0047 73.0821 71.0047 70.7279V62.1708C71.9537 62.9561 73.2262 63.3341 74.5201 63.1058C75.6756 62.9021 76.6771 62.2569 77.3402 61.2892C78.0033 60.3215 78.2437 59.1543 78.0166 58.0032ZM32.6317 19.9797V15.8484V11.2171H41.5685C41.9712 11.2171 42.3574 11.0568 42.6417 10.7717L45.6108 7.79424C47.2991 6.10145 49.4308 4.96201 51.7764 4.49959L59.0899 3.05748C59.4355 2.98958 59.7854 3.06142 60.0758 3.26042C60.3662 3.45942 60.5598 3.75997 60.6209 4.10659C60.7394 4.77847 60.3132 5.43185 59.6508 5.59432L56.6116 6.33955C55.6529 6.57447 55.0429 7.45626 55.1613 8.43611C55.2796 9.41596 56.0818 10.1272 57.069 10.1272H71.2283C71.9114 10.1272 72.467 10.683 72.467 11.366C72.467 11.9989 71.9897 12.5215 71.3762 12.5948L62.9878 12.6045C62.1509 12.6045 61.4722 13.2831 61.4722 14.1201C61.4722 14.9572 62.1509 15.6358 62.9878 15.6358L73.8296 15.6261C74.5126 15.6261 75.0683 16.1818 75.0683 16.8648C75.0683 17.5477 74.5126 18.1035 73.8296 18.1035H62.9878C62.1509 18.1035 61.4722 18.782 61.4722 19.6191C61.4722 20.4562 62.1509 21.1347 62.9878 21.1347H71.3768C71.99 21.2084 72.467 21.731 72.467 22.3636C72.467 23.0465 71.9114 23.6023 71.2283 23.6023H62.9878C62.1509 23.6023 61.4722 24.2808 61.4722 25.1179C61.4722 25.955 62.1509 26.6335 62.9878 26.6335H68.4985C69.1117 26.707 69.5891 27.2296 69.5891 27.8625C69.5891 28.5455 69.0335 29.1011 68.3506 29.1011H53.0445C49.8381 29.1011 46.8251 27.8507 44.5611 25.5802L42.642 23.6556C42.3577 23.3706 41.9715 23.2102 41.5688 23.2102H32.6317V19.9797ZM8.29406 32.4891C6.6011 30.801 5.4618 28.6692 4.99954 26.3236L3.55726 19.0103C3.48906 18.6649 3.56121 18.3148 3.76021 18.0244C3.95921 17.734 4.25976 17.5404 4.60638 17.4794C5.27902 17.3611 5.9315 17.787 6.09397 18.4495L6.83906 21.4885C7.07383 22.4472 7.95623 23.0562 8.93548 22.9389C9.91548 22.8207 10.6268 22.0183 10.6268 21.0314V6.87214C10.6268 6.1892 11.1824 5.63343 11.8655 5.63343C12.4983 5.63343 13.0207 6.11054 13.0944 6.72376L13.1041 15.1126C13.1041 15.9496 13.7828 16.6282 14.6197 16.6282C15.4566 16.6282 16.1353 15.9496 16.1353 15.1126V6.87214C16.1353 6.77984 16.1314 6.6886 16.1256 6.59766V4.27089C16.1256 3.58795 16.6812 3.03232 17.3643 3.03232C18.0474 3.03232 18.6031 3.58795 18.6031 4.27089V6.59782C18.5973 6.6886 18.5934 6.77999 18.5934 6.87229L18.6031 15.1127C18.6031 15.9498 19.2818 16.6283 20.1187 16.6283C20.9556 16.6283 21.6343 15.9498 21.6343 15.1127V6.72376C21.708 6.11054 22.2306 5.63343 22.8632 5.63343C23.5463 5.63343 24.1019 6.1892 24.1019 6.87214C24.1019 6.87214 24.0959 14.2453 24.1019 14.3005V15.1127C24.1019 15.9498 24.7806 16.6283 25.6175 16.6283C26.4545 16.6283 27.1332 15.9498 27.1332 15.1127V9.60162C27.2068 8.9884 27.7294 8.51128 28.3621 8.51128C29.0451 8.51128 29.6008 9.06706 29.6008 9.75V25.0558C29.6008 28.2157 28.3173 31.3079 26.08 33.5391L24.1554 35.4582C23.8702 35.7426 23.71 36.1287 23.71 36.5314V45.4683H20.6789V41.4442C20.6789 40.6072 20.0002 39.9285 19.1632 39.9285C18.3263 39.9285 17.6476 40.6072 17.6476 41.4442V45.4683H11.7171V36.5314C11.7171 36.1287 11.5568 35.7426 11.2717 35.4582L8.29406 32.4891ZM45.9688 66.3825H37.0316V66.3826C36.6289 66.3826 36.2427 66.543 35.9584 66.8279L32.9893 69.8053C31.301 71.4984 29.1691 72.6377 26.8237 73.0998L19.5102 74.5421C19.1646 74.6104 18.8146 74.5383 18.5243 74.3391C18.2339 74.14 18.0403 73.8396 17.9792 73.493C17.8607 72.8213 18.2869 72.1679 18.9492 72.0055L21.9888 71.2603C22.9473 71.0252 23.5572 70.1436 23.4387 69.1638C23.3205 68.1839 22.5181 67.4728 21.5311 67.4728H7.3721C6.68901 67.4728 6.13338 66.9172 6.13338 66.2341C6.13338 65.601 6.61095 65.0783 7.22463 65.0051L15.6127 64.9955C16.4497 64.9955 17.1284 64.3168 17.1284 63.4799C17.1284 62.643 16.4497 61.9643 15.6127 61.9643L4.77098 61.9738C4.08789 61.9738 3.53226 61.4182 3.53226 60.7351C3.53226 60.0522 4.08789 59.4965 4.77098 59.4965H15.6127C16.4497 59.4965 17.1284 58.8178 17.1284 57.9809C17.1284 57.144 16.4497 56.4653 15.6127 56.4653H7.22463C6.61095 56.3921 6.13338 55.8694 6.13338 55.2363C6.13338 54.5533 6.68901 53.9977 7.3721 53.9977H15.6127C16.4497 53.9977 17.1284 53.319 17.1284 52.4821C17.1284 51.6452 16.4497 50.9665 15.6127 50.9665H10.1025C9.48898 50.8933 9.01141 50.3705 9.01141 49.7375C9.01141 49.0544 9.56704 48.4988 10.25 48.4988H25.5559C28.7622 48.4988 31.7751 49.7493 34.0393 52.0197L35.9584 53.9442C36.2427 54.2295 36.6289 54.3897 37.0316 54.3897H45.9688V66.3825ZM46.015 51.3595H37.6606L36.1857 49.8804C33.6293 47.3167 30.3115 45.7916 26.7406 45.5148V37.1604L28.2197 35.6856C30.7431 33.1693 32.2972 29.7795 32.5831 26.2404H40.9396L42.4145 27.7195C44.9709 30.2831 48.2889 31.8082 51.8598 32.0851V40.4396L50.3807 41.9145C47.817 44.4705 46.2918 47.7887 46.015 51.3595ZM74.8397 59.5753C74.6407 59.8657 74.3402 60.0593 73.9934 60.1205C73.3209 60.2396 72.6683 59.8129 72.5061 59.1504L71.7609 56.1109C71.5258 55.1522 70.6425 54.5433 69.6642 54.661C68.6843 54.7793 67.9732 55.5815 67.9732 56.5685V70.7277C67.9732 71.4108 67.4175 71.9664 66.7346 71.9664C66.1015 71.9664 65.5788 71.4889 65.5056 70.8752L65.496 62.4873C65.496 61.6504 64.8173 60.9717 63.9804 60.9717C63.1435 60.9717 62.4648 61.6504 62.4648 62.4873L62.4743 73.3291C62.4743 74.0121 61.9187 74.5677 61.2356 74.5677C60.5526 74.5677 59.997 74.0121 59.997 73.3291V62.4873C59.997 61.6504 59.3183 60.9717 58.4814 60.9717C57.6445 60.9717 56.9658 61.6504 56.9658 62.4873V70.8752C56.8926 71.4889 56.3698 71.9664 55.7367 71.9664C55.0536 71.9664 54.498 71.4108 54.498 70.7277V62.4873C54.498 61.6504 53.8193 60.9717 52.9824 60.9717C52.1455 60.9717 51.4668 61.6504 51.4668 62.4873V67.9984C51.3931 68.6116 50.8705 69.0887 50.2379 69.0887C49.5548 69.0887 48.9992 68.5331 48.9992 67.85V61.7521V57.6208V52.5442C48.9992 49.338 50.2497 46.3251 52.5201 44.0607L54.4447 42.1416C54.7299 41.8573 54.8901 41.4711 54.8901 41.0684V32.1314H58.1199H60.7359V36.7288C60.7359 37.5658 61.4146 38.2444 62.2515 38.2444C63.0884 38.2444 63.7671 37.5658 63.7671 36.7288V32.1314H66.8824V41.0684C66.8824 41.4711 67.0427 41.8573 67.3277 42.1416L70.3051 45.1107C71.9982 46.799 73.1375 48.9309 73.5996 51.2764L75.0419 58.5897C75.1109 58.935 75.0389 59.2851 74.8397 59.5753Z" fill="#323232"/>
</svg>