<svg width="14" height="18" viewBox="0 0 14 18" fill="none" xmlns="http://www.w3.org/2000/svg">
<path d="M4.54565 2.90896C4.54565 3.41524 4.74678 3.9008 5.10477 4.25879C5.46277 4.61679 5.94832 4.81792 6.45461 4.81792C6.9609 4.81792 7.44645 4.61679 7.80445 4.25879C8.16245 3.9008 8.36357 3.41524 8.36357 2.90896C8.36357 2.40267 8.16245 1.91712 7.80445 1.55912C7.44645 1.20112 6.9609 1 6.45461 1C5.94832 1 5.46277 1.20112 5.10477 1.55912C4.74678 1.91712 4.54565 2.40267 4.54565 2.90896V2.90896Z" stroke="#323232" stroke-linecap="round" stroke-linejoin="round"/>
<path d="M10.9328 16.4871L9.59766 13.8175H6.4546C6.1653 13.8175 5.88784 13.7025 5.68327 13.498C5.4787 13.2934 5.36377 13.0159 5.36377 12.7266V7.27247C5.36377 6.98317 5.4787 6.70571 5.68327 6.50114C5.88784 6.29657 6.1653 6.18164 6.4546 6.18164C6.74391 6.18164 7.02137 6.29657 7.22594 6.50114C7.43051 6.70571 7.54544 6.98317 7.54544 7.27247V11.6358H10.2725C10.4751 11.6357 10.6738 11.6921 10.8461 11.7986C11.0185 11.9051 11.1578 12.0575 11.2484 12.2387L12.8847 15.5112C13.0141 15.77 13.0354 16.0696 12.9439 16.3442C12.8524 16.6187 12.6556 16.8457 12.3967 16.9751C12.1379 17.1045 11.8383 17.1258 11.5637 17.0343C11.2892 16.9428 11.0623 16.7459 10.9328 16.4871V16.4871Z" stroke="#323232" stroke-linecap="round" stroke-linejoin="round"/>
<path d="M7.54554 16.506C6.54319 17.0846 5.35204 17.2414 4.23413 16.9417C3.11622 16.6421 2.16312 15.9107 1.5845 14.9083C1.00589 13.906 0.849158 12.7148 1.14879 11.5969C1.44841 10.479 2.17986 9.52588 3.18221 8.94727" stroke="#323232" stroke-linecap="round" stroke-linejoin="round"/>
</svg>
